<svg width="547" height="395" viewBox="0 0 547 395" fill="none" xmlns="http://www.w3.org/2000/svg">
<path opacity="0.6" d="M317.818 69.6525C282.751 68.4312 249.325 57.0861 217.456 44.6762C185.586 32.2663 153.999 18.514 119.753 11.9381C97.7341 7.70391 72.5528 7.1084 54.8151 18.9379C37.7422 30.3183 32.2275 49.9652 29.2612 68.194C27.0301 81.911 25.7358 96.3446 31.8347 109.189C36.0803 118.101 43.6145 125.595 48.827 134.135C66.9575 163.845 54.1403 200.484 34.4888 229.518C25.2725 243.144 14.5805 256.109 7.46929 270.598C0.358105 285.087 -2.9356 301.686 3.28921 316.463C9.45862 331.098 24.1544 342.11 40.079 349.847C72.4219 365.547 110.531 370.039 147.694 372.613C229.956 378.25 312.661 375.807 395.14 373.365C425.665 372.456 456.325 371.543 486.352 366.804C503.027 364.175 520.245 360.006 532.353 349.943C547.718 337.164 551.531 315.534 541.232 299.511C523.957 272.642 476.198 265.965 464.121 237.128C457.479 221.256 464.303 203.572 473.962 188.851C494.676 157.274 529.406 129.567 531.235 93.468C532.494 68.6734 515.798 43.8486 489.983 32.1149C462.928 19.806 425.408 21.3604 405.449 41.7037C384.896 62.6628 348.776 70.7275 317.818 69.6525Z" fill="#587EEC"/>
<path d="M122.004 365.901C122.004 365.901 94.3044 344.916 89.0718 318.224C86.9498 307.013 81.258 296.794 72.85 289.099C68.8278 285.48 64.4836 282.236 59.8716 279.41" stroke="#9AB1F3" stroke-width="2" stroke-miterlimit="10"/>
<path d="M56.4822 262.594C58.9097 265.885 60.0076 279.829 60.0076 279.829C60.0076 279.829 47.0291 274.706 44.5966 271.421C43.4286 269.841 42.9345 267.862 43.223 265.917C43.5115 263.973 44.5591 262.223 46.1352 261.052C47.7113 259.882 49.6869 259.387 51.6273 259.676C53.5678 259.965 55.3141 261.015 56.4822 262.594V262.594Z" fill="#587EEC"/>
<path d="M79.7599 273.535C80.0117 277.618 73.3789 289.922 73.3789 289.922C73.3789 289.922 65.2554 278.547 64.9986 274.464C64.9009 272.517 65.5725 270.611 66.8679 269.157C68.1633 267.704 69.9781 266.82 71.9191 266.698C73.8601 266.576 75.771 267.225 77.2377 268.505C78.7044 269.784 79.6087 271.592 79.7548 273.535H79.7599Z" fill="#587EEC"/>
<path d="M102.322 304.987C100.489 308.64 88.5581 315.908 88.5581 315.908C88.5581 315.908 87.2839 301.979 89.1171 298.325C90.0195 296.607 91.5591 295.312 93.4044 294.72C95.2497 294.127 97.2533 294.285 98.9841 295.158C100.715 296.031 102.034 297.55 102.659 299.388C103.283 301.226 103.162 303.237 102.322 304.987V304.987Z" fill="#587EEC"/>
<path d="M114.051 332.623C112.858 336.534 102.327 345.714 102.327 345.714C102.327 345.714 98.7161 332.204 99.9097 328.287C100.483 326.408 101.778 324.834 103.51 323.912C105.242 322.99 107.268 322.794 109.144 323.369C111.019 323.944 112.59 325.242 113.51 326.977C114.43 328.713 114.625 330.743 114.051 332.623V332.623Z" fill="#587EEC"/>
<path d="M61.3724 299.814C65.4014 300.359 78.138 294.595 78.138 294.595C78.138 294.595 67.3907 285.673 63.3415 285.128C61.3981 284.866 59.4305 285.389 57.8717 286.581C56.3128 287.773 55.2903 289.537 55.0292 291.484C54.7681 293.432 55.2897 295.403 56.4792 296.965C57.6688 298.527 59.4289 299.552 61.3724 299.814V299.814Z" fill="#587EEC"/>
<path d="M75.499 331.966C79.528 331.275 89.938 321.964 89.938 321.964C89.938 321.964 77.0149 316.675 72.991 317.366C72.0276 317.524 71.1049 317.872 70.2764 318.39C69.4479 318.907 68.7298 319.584 68.1637 320.381C67.5976 321.178 67.1946 322.08 66.978 323.034C66.7614 323.987 66.7354 324.975 66.9017 325.939C67.068 326.903 67.4231 327.824 67.9467 328.65C68.4702 329.476 69.1518 330.19 69.952 330.75C70.7523 331.31 71.6554 331.706 72.6092 331.915C73.563 332.124 74.5486 332.141 75.5091 331.966H75.499Z" fill="#587EEC"/>
<path d="M93.5036 361.333C97.588 361.333 109.423 353.92 109.423 353.92C109.423 353.92 97.583 346.516 93.4986 346.516C91.5378 346.516 89.6573 347.297 88.2708 348.686C86.8843 350.075 86.1053 351.96 86.1053 353.925C86.1053 355.889 86.8843 357.774 88.2708 359.163C89.6573 360.553 91.5378 361.333 93.4986 361.333H93.5036Z" fill="#587EEC"/>
<path d="M391.091 184.405C391.091 184.405 408.164 154.1 433.899 145.369C444.705 141.772 454.057 134.762 460.551 125.389C463.596 120.908 466.225 116.155 468.402 111.192" stroke="#9AB1F3" stroke-width="2" stroke-miterlimit="10"/>
<path d="M484.559 105.641C481.627 108.487 467.984 111.434 467.984 111.434C467.984 111.434 471.333 97.8587 474.264 95.0072C475.679 93.6799 477.558 92.9623 479.495 93.009C481.433 93.0557 483.274 93.8629 484.624 95.2569C485.973 96.6509 486.723 98.5201 486.711 100.462C486.698 102.404 485.926 104.264 484.559 105.641Z" fill="#587EEC"/>
<path d="M476.843 130.183C472.814 130.98 459.785 126.025 459.785 126.025C459.785 126.025 469.958 116.436 473.962 115.653C474.924 115.44 475.918 115.42 476.887 115.597C477.856 115.774 478.78 116.142 479.604 116.682C480.429 117.221 481.138 117.92 481.689 118.737C482.241 119.555 482.624 120.475 482.816 121.442C483.007 122.41 483.004 123.407 482.807 124.373C482.609 125.34 482.221 126.258 481.664 127.072C481.108 127.886 480.395 128.581 479.567 129.115C478.739 129.649 477.813 130.012 476.843 130.183V130.183Z" fill="#587EEC"/>
<path d="M448.761 156.769C444.903 155.432 436.135 144.551 436.135 144.551C436.135 144.551 449.733 141.432 453.601 142.77C454.53 143.079 455.389 143.569 456.127 144.214C456.866 144.858 457.469 145.643 457.903 146.522C458.336 147.402 458.591 148.359 458.652 149.339C458.713 150.318 458.579 151.299 458.259 152.227C457.938 153.154 457.437 154.008 456.785 154.739C456.132 155.471 455.341 156.065 454.457 156.487C453.574 156.91 452.615 157.153 451.637 157.201C450.66 157.249 449.682 157.103 448.761 156.769V156.769Z" fill="#587EEC"/>
<path d="M422.955 172.091C418.926 171.425 408.471 162.164 408.471 162.164C408.471 162.164 421.359 156.784 425.383 157.45C427.319 157.77 429.05 158.847 430.195 160.445C431.339 162.043 431.803 164.031 431.484 165.972C431.166 167.913 430.091 169.647 428.496 170.794C426.901 171.94 424.917 172.405 422.98 172.086L422.955 172.091Z" fill="#587EEC"/>
<path d="M448.409 115.411C448.403 119.504 455.812 131.379 455.812 131.379C455.812 131.379 463.21 119.519 463.21 115.431C463.236 114.443 463.064 113.459 462.704 112.537C462.344 111.616 461.804 110.777 461.115 110.068C460.426 109.36 459.603 108.797 458.693 108.412C457.784 108.028 456.806 107.829 455.819 107.829C454.832 107.829 453.855 108.028 452.946 108.412C452.036 108.797 451.213 109.36 450.524 110.068C449.835 110.777 449.295 111.616 448.935 112.537C448.575 113.459 448.403 114.443 448.429 115.431L448.409 115.411Z" fill="#587EEC"/>
<path d="M418.478 133.711C419.697 137.617 430.293 146.726 430.293 146.726C430.293 146.726 433.818 133.191 432.59 129.285C431.952 127.475 430.639 125.984 428.926 125.125C427.214 124.266 425.235 124.106 423.408 124.68C421.58 125.254 420.046 126.515 419.128 128.2C418.211 129.884 417.981 131.86 418.488 133.711H418.478Z" fill="#587EEC"/>
<path d="M391.851 155.497C392.395 159.535 401.299 170.32 401.299 170.32C401.299 170.32 407.046 157.577 406.502 153.524C406.394 152.542 406.091 151.592 405.611 150.729C405.131 149.866 404.484 149.108 403.708 148.499C402.931 147.891 402.041 147.444 401.09 147.185C400.138 146.926 399.145 146.861 398.168 146.993C397.191 147.124 396.25 147.45 395.401 147.952C394.551 148.453 393.811 149.119 393.222 149.912C392.634 150.704 392.209 151.607 391.974 152.566C391.738 153.525 391.697 154.522 391.851 155.497V155.497Z" fill="#587EEC"/>
<path opacity="0.25" d="M484.559 105.641C481.627 108.487 467.984 111.434 467.984 111.434C467.984 111.434 471.333 97.8587 474.264 95.0072C475.679 93.6799 477.558 92.9623 479.495 93.009C481.433 93.0557 483.274 93.8629 484.624 95.2569C485.973 96.6509 486.723 98.5201 486.711 100.462C486.698 102.404 485.926 104.264 484.559 105.641Z" fill="black"/>
<path opacity="0.25" d="M476.843 130.183C472.814 130.98 459.785 126.025 459.785 126.025C459.785 126.025 469.958 116.436 473.962 115.653C474.924 115.44 475.918 115.42 476.887 115.597C477.856 115.774 478.78 116.142 479.604 116.682C480.429 117.221 481.138 117.92 481.689 118.737C482.241 119.555 482.624 120.475 482.816 121.442C483.007 122.41 483.004 123.407 482.807 124.373C482.609 125.34 482.221 126.258 481.664 127.072C481.108 127.886 480.395 128.581 479.567 129.115C478.739 129.649 477.813 130.012 476.843 130.183V130.183Z" fill="black"/>
<path opacity="0.25" d="M448.761 156.769C444.903 155.432 436.135 144.551 436.135 144.551C436.135 144.551 449.733 141.432 453.601 142.77C454.53 143.079 455.389 143.569 456.127 144.214C456.866 144.858 457.469 145.643 457.903 146.522C458.336 147.402 458.591 148.359 458.652 149.339C458.713 150.318 458.579 151.299 458.259 152.227C457.938 153.154 457.437 154.008 456.785 154.739C456.132 155.471 455.341 156.065 454.457 156.487C453.574 156.91 452.615 157.153 451.637 157.201C450.66 157.249 449.682 157.103 448.761 156.769V156.769Z" fill="black"/>
<path opacity="0.25" d="M422.955 172.091C418.926 171.425 408.471 162.164 408.471 162.164C408.471 162.164 421.359 156.784 425.383 157.45C427.319 157.77 429.05 158.847 430.195 160.445C431.339 162.043 431.803 164.031 431.484 165.972C431.166 167.913 430.091 169.647 428.496 170.794C426.901 171.94 424.917 172.405 422.98 172.086L422.955 172.091Z" fill="black"/>
<path opacity="0.25" d="M448.409 115.411C448.403 119.504 455.812 131.379 455.812 131.379C455.812 131.379 463.21 119.519 463.21 115.431C463.236 114.443 463.064 113.459 462.704 112.537C462.344 111.616 461.804 110.777 461.115 110.068C460.426 109.36 459.603 108.797 458.693 108.412C457.784 108.028 456.806 107.829 455.819 107.829C454.832 107.829 453.855 108.028 452.946 108.412C452.036 108.797 451.213 109.36 450.524 110.068C449.835 110.777 449.295 111.616 448.935 112.537C448.575 113.459 448.403 114.443 448.429 115.431L448.409 115.411Z" fill="black"/>
<path opacity="0.25" d="M418.478 133.711C419.697 137.617 430.293 146.726 430.293 146.726C430.293 146.726 433.818 133.191 432.59 129.285C431.952 127.475 430.639 125.984 428.926 125.125C427.214 124.266 425.235 124.106 423.408 124.68C421.58 125.254 420.046 126.515 419.128 128.2C418.211 129.884 417.981 131.86 418.488 133.711H418.478Z" fill="black"/>
<path opacity="0.25" d="M391.851 155.497C392.395 159.535 401.299 170.32 401.299 170.32C401.299 170.32 407.046 157.577 406.502 153.524C406.394 152.542 406.091 151.592 405.611 150.729C405.131 149.866 404.484 149.108 403.708 148.499C402.931 147.891 402.041 147.444 401.09 147.185C400.138 146.926 399.145 146.861 398.168 146.993C397.191 147.124 396.25 147.45 395.401 147.952C394.551 148.453 393.811 149.119 393.222 149.912C392.634 150.704 392.209 151.607 391.974 152.566C391.738 153.525 391.697 154.522 391.851 155.497V155.497Z" fill="black"/>
<path d="M392.073 183.804C392.073 183.804 395.427 149.164 415.401 130.743C423.825 123.066 429.54 112.86 431.688 101.654C432.666 96.3267 433.153 90.9208 433.143 85.5043" stroke="#9AB1F3" stroke-width="2" stroke-miterlimit="10"/>
<path d="M445.664 73.8161C444.153 77.6113 432.851 85.8475 432.851 85.8475C432.851 85.8475 430.424 72.075 431.95 68.2798C432.685 66.4575 434.112 65.0023 435.917 64.2342C437.722 63.4662 439.758 63.4483 441.577 64.1844C443.395 64.9206 444.848 66.3505 445.614 68.1596C446.38 69.9688 446.398 72.0089 445.664 73.8313V73.8161Z" fill="#587EEC"/>
<path d="M448.539 99.4131C445.2 101.765 431.265 102.537 431.265 102.537C431.265 102.537 436.694 89.6477 440.033 87.2959C440.825 86.702 441.728 86.2734 442.688 86.0354C443.648 85.7974 444.646 85.7549 445.623 85.9104C446.6 86.0659 447.536 86.4162 448.375 86.9407C449.214 87.4651 449.94 88.1529 450.509 88.9635C451.078 89.774 451.48 90.6908 451.689 91.6595C451.898 92.6282 451.911 93.6292 451.728 94.6031C451.544 95.577 451.167 96.504 450.62 97.3294C450.072 98.1547 449.365 98.8616 448.539 99.4081V99.4131Z" fill="#587EEC"/>
<path d="M433.602 135.134C429.533 135.477 417.113 129.078 417.113 129.078C417.113 129.078 428.294 120.7 432.363 120.357C434.317 120.192 436.257 120.812 437.754 122.081C439.252 123.349 440.186 125.161 440.351 127.12C440.515 129.078 439.896 131.021 438.631 132.522C437.365 134.023 435.556 134.959 433.602 135.124V135.134Z" fill="#587EEC"/>
<path d="M416.222 159.605C412.268 160.615 398.952 156.441 398.952 156.441C398.952 156.441 408.557 146.292 412.51 145.263C414.408 144.769 416.424 145.052 418.114 146.048C419.804 147.044 421.03 148.672 421.522 150.574C422.015 152.476 421.733 154.496 420.739 156.19C419.745 157.884 418.12 159.112 416.222 159.605V159.605Z" fill="#587EEC"/>
<path d="M416.574 97.4549C418.226 101.195 429.78 109.062 429.78 109.062C429.78 109.062 431.744 95.2142 430.092 91.4745C429.269 89.7249 427.795 88.3673 425.987 87.6917C424.178 87.0161 422.177 87.0762 420.412 87.8591C418.647 88.642 417.257 90.0857 416.54 91.8815C415.823 93.6774 415.835 95.6831 416.574 97.4701V97.4549Z" fill="#587EEC"/>
<path d="M396.611 126.332C399.305 129.406 412.671 133.433 412.671 133.433C412.671 133.433 410.415 119.63 407.721 116.557C407.085 115.81 406.307 115.198 405.433 114.755C404.558 114.312 403.605 114.048 402.628 113.977C401.651 113.907 400.67 114.031 399.741 114.344C398.813 114.657 397.955 115.152 397.219 115.8C396.483 116.447 395.883 117.235 395.453 118.117C395.024 118.999 394.773 119.958 394.716 120.938C394.66 121.918 394.798 122.9 395.123 123.826C395.448 124.752 395.954 125.604 396.611 126.332V126.332Z" fill="#587EEC"/>
<path d="M381.054 157.077C383.189 160.559 395.684 166.792 395.684 166.792C395.684 166.792 395.79 152.808 393.67 149.32C392.614 147.71 390.974 146.575 389.098 146.156C387.221 145.737 385.256 146.067 383.618 147.076C381.98 148.085 380.799 149.694 380.325 151.561C379.851 153.428 380.122 155.406 381.079 157.077H381.054Z" fill="#587EEC"/>
<path d="M366.388 48.1434C367.224 45.07 368.231 41.9814 368.936 38.8675C368.09 41.9814 367.078 45.08 366.388 48.1434Z" fill="url(#paint0_linear_4_6)"/>
<path d="M362.641 77.7475C362.57 77.6264 362.52 77.5053 362.465 77.3942C362.465 77.3438 362.414 77.3034 362.394 77.2529C362.284 77.3048 362.172 77.3503 362.057 77.3892C361.835 77.475 361.609 77.5557 361.377 77.6213C361.145 77.6869 361.05 77.7223 360.873 77.7626C360.727 77.8131 360.577 77.8519 360.425 77.8787L360.465 77.9696C360.652 77.9292 360.833 77.8939 361.019 77.8434L361.07 78.4692C361.281 78.4692 361.478 78.4389 361.669 78.4389C361.76 78.4339 361.85 78.4339 361.941 78.4389C362.334 78.4389 362.676 78.4389 362.948 78.4389C362.842 78.2118 362.732 77.9746 362.641 77.7475ZM464.877 240.822C462.51 237.628 457.786 203.34 457.786 203.34C457.786 203.34 448.494 178.96 451.027 169.23C453.56 159.499 444.107 134.604 444.107 134.604C444.107 134.604 437.862 131.884 437.525 127.846C437.525 127.846 412.026 119.772 410.833 113.716C409.866 108.75 394.052 105.187 388.371 104.061C386.639 97.0563 384.896 90.5208 383.612 86.9527C383.264 85.8425 382.937 84.8836 382.635 84.1266C380.464 78.5752 373.756 78.0705 368.891 78.5146C368.68 77.5684 368.289 76.6721 367.738 75.8752C367.657 75.6012 367.498 75.3571 367.279 75.1737C367.175 75.0845 367.064 75.0035 366.947 74.9314C366.859 74.7679 366.743 74.621 366.605 74.4974C366.466 74.3727 366.314 74.2643 366.151 74.1744C366.034 74.111 365.913 74.0553 365.789 74.0079C365.497 73.8965 365.195 73.8137 364.887 73.7606C364.529 73.6867 364.165 73.6394 363.799 73.6193C364.688 73.2296 365.481 72.649 366.121 71.9185C366.557 71.4057 366.881 70.8076 367.073 70.1623C367.232 69.6256 367.304 69.0666 367.284 68.5069C367.154 68.7376 367.002 68.9555 366.831 69.158C367.043 66.9223 365.864 64.6512 365.189 62.4256C364.372 59.5282 364.22 56.4827 364.746 53.5182C365.421 49.0468 367.093 44.5249 368.226 39.9727C368.229 39.9476 368.229 39.9222 368.226 39.897C368.82 37.6363 369.188 35.3219 369.324 32.9881C369.521 28.2795 368.317 23.581 366.383 19.2912C364.666 15.4911 362.132 11.7514 358.254 10.2071C355.374 9.04134 352.145 9.22807 349.043 9.03629C342.083 8.60228 335.445 6.14957 328.828 3.91891C322.21 1.68826 315.401 -0.340528 308.436 0.0480699C301.471 0.436668 294.304 3.80283 291.126 9.98003C290.119 11.9079 289.54 14.0527 288.336 15.8645C286.08 19.2812 282.041 20.992 278.672 23.3488C275.302 25.7056 272.336 29.0516 271.117 33.0436C270.452 35.1943 270.358 37.4819 270.845 39.68V39.68C270.955 40.1764 271.096 40.6653 271.268 41.1436C271.746 42.4771 272.492 43.6983 273.459 44.7318C274.188 45.4957 275.027 46.1471 275.947 46.6647V46.6647C277.102 47.3065 278.339 47.7886 279.623 48.098C279.578 48.2494 279.533 48.4109 279.482 48.5673C279.402 48.8247 279.331 49.072 279.256 49.3496C279.09 49.9703 278.933 50.6012 278.802 51.237C278.797 51.2823 278.797 51.328 278.802 51.3733C278.184 54.2439 277.873 57.1725 277.876 60.1092C277.875 61.4981 277.945 62.8861 278.087 64.2677V64.2677C280.102 84.7473 296.973 100.902 317.818 101.952C318.533 101.987 319.254 102.007 319.984 102.007C320.316 102.007 320.644 102.007 320.991 102.007C321.319 102.441 321.641 102.885 321.948 103.319C322.255 103.753 322.537 104.197 322.804 104.631L322.074 103.874L321.344 103.203C321.146 103.475 320.925 103.73 320.684 103.965C320.208 103.797 319.722 103.659 319.228 103.551V103.551C317.138 103.087 313.956 102.916 309.765 104.182C305.913 105.338 301.204 107.715 295.694 112.232L268.846 128.381L254.321 137.233L249.089 150.052C249.089 150.052 245.155 165.283 240.779 182.735C240.608 182.785 240.441 182.836 240.275 182.896C239.921 182.856 239.564 182.835 239.207 182.836C236.668 182.83 234.226 183.81 232.392 185.571C230.559 187.331 229.478 189.735 229.377 192.278C220.674 202.876 220.18 213.474 222.225 218.339C222.41 218.795 222.643 219.23 222.92 219.636C224.26 221.574 226.763 226.57 229.301 231.895C229.236 232.334 229.195 232.702 229.175 232.98C229.171 233.071 229.171 233.162 229.175 233.252C229.175 233.252 230.686 256.119 225.65 262.675C224.547 264.103 224.713 265.98 225.65 268.06C229.024 275.539 242.365 285.526 242.365 285.526C242.365 285.526 258.365 285.441 267.28 284.467C267.254 285.365 267.234 286.258 267.214 287.131C267.013 295.953 267.013 303.346 267.013 303.346L266.68 312.597C266.68 312.597 263.658 332.093 262.148 337.467C261.196 340.839 262.294 372.053 263.251 395H420.895C422.749 381.424 420.135 340.177 420.135 340.177C420.135 340.177 417.652 329.514 417.561 320.218C417.556 320.207 417.554 320.196 417.554 320.185C417.554 320.173 417.556 320.162 417.561 320.152C417.561 319.339 417.561 318.547 417.592 317.77L418.735 317.73L420.79 317.659H420.976C420.976 317.659 421.026 317.467 421.142 317.154C421.414 316.375 421.785 315.634 422.245 314.949C423.121 313.652 424.491 312.38 426.551 312.294C427.689 312.249 429.452 311.325 431.441 309.963C431.454 309.966 431.468 309.966 431.482 309.963C436.835 306.334 443.911 299.637 445.628 298.537C447.99 297.023 459.302 286.929 459.302 286.929C459.302 286.929 460.989 284.79 462.787 282.211L462.852 282.12C465.088 278.89 467.466 275.029 466.881 273.813C465.874 271.633 467.556 266.419 467.556 266.419C472.809 256.785 467.244 244.017 464.877 240.822ZM367.491 85.5952C367.539 85.7458 367.57 85.9017 367.582 86.0595C367.456 85.8929 367.33 85.7163 367.204 85.5548L367.083 85.3933L366.997 85.2722L367.189 85.0098C367.189 85.0098 367.189 85.0098 367.189 85.0451C367.322 85.2087 367.424 85.3951 367.491 85.5952V85.5952ZM365.799 81.1238C365.25 81.2348 364.817 81.3357 364.535 81.4114C364.177 80.7756 363.835 80.1397 363.527 79.4937C364.335 79.9631 365.095 80.5089 365.799 81.1238V81.1238ZM364.852 81.9212C364.85 81.9111 364.85 81.9009 364.852 81.8909L364.892 81.9212C365.099 82.0574 365.3 82.1886 365.486 82.3249C365.653 82.446 365.804 82.5621 365.955 82.6832C365.854 82.8598 365.743 83.0415 365.633 83.1879C365.456 82.9103 365.29 82.6428 365.129 82.3653C365.028 82.2542 364.938 82.1028 364.852 81.9212ZM361.83 75.6935C362.803 75.5973 363.783 75.5973 364.756 75.6935V75.6935C364.892 75.6935 365.013 75.7187 365.134 75.7389C365.407 75.7812 365.675 75.8505 365.935 75.9458C366.53 76.7802 366.896 77.7564 366.997 78.777L366.725 78.8174L366.458 78.8679C365.955 78.9537 365.451 79.0395 365.058 79.1202L364.555 79.2262C363.885 79.3726 363.497 79.4836 363.482 79.4886C363.417 79.3524 363.351 79.2262 363.281 79.095C363.17 78.878 363.054 78.6559 362.953 78.4389C362.853 78.2219 362.722 77.9746 362.616 77.7475C362.545 77.6264 362.495 77.5053 362.44 77.3942C362.44 77.3438 362.389 77.3034 362.369 77.2529C362.34 77.1994 362.314 77.1437 362.293 77.0864C361.986 76.4606 361.704 75.8348 361.432 75.2191C361.402 75.1585 361.377 75.0929 361.352 75.0324L361.734 75.0071V75.1384L361.83 75.6935ZM241.67 388.762C241.63 381.248 241.086 373.117 239.575 365.487C238.93 362.242 238.266 358.997 237.591 355.807C237.42 355.01 237.253 354.222 237.087 353.435L235.536 353.642H235.395C231.165 333.652 226.743 316.039 226.743 316.039C226.743 316.039 217.959 282.433 218.977 279.753C219.108 279.405 218.942 278.466 218.569 277.088C216.444 269.447 207.57 248.393 204.467 241.196C204.467 241.166 204.442 241.13 204.432 241.105C203.928 239.899 203.566 239.086 203.455 238.849L204.185 228.11L204.226 227.464L204.321 226.091L204.281 226.056L204.321 225.42C204.321 225.42 196.656 219.122 183.673 214.574C183.169 214.393 182.635 214.216 182.106 214.045C182.756 209.699 183.617 204.794 184.74 200.015C184.846 199.535 184.962 199.071 185.083 198.602C185.189 198.132 185.309 197.678 185.43 197.219C185.622 196.472 185.828 195.735 186.04 195.008C186.74 194.786 187.43 194.539 188.11 194.276L188.372 194.176C196.747 190.91 203.658 184.713 207.825 176.733C211.992 168.754 213.132 159.531 211.035 150.774V150.774C209.839 145.807 207.63 141.142 204.548 137.072C204.316 136.759 204.07 136.446 203.823 136.138C203.576 135.83 203.279 135.487 203.002 135.174C204.457 131.859 206.175 128.704 206.316 125.479C206.341 125.071 206.341 124.662 206.316 124.253V124.203C206.129 122.128 205.213 120.029 203.077 117.824C199.96 114.589 195.523 112.948 191.086 112.161C186.649 111.374 182.127 111.354 177.664 110.824C170.266 109.936 163.059 107.649 155.661 106.948C146.548 106.102 137.374 107.668 129.055 111.49C123.55 114.013 117.975 118.424 117.642 124.475C117.37 129.476 120.845 134.271 119.969 139.212C119.098 144.067 114.162 147.887 114.595 152.797C114.762 154.715 115.744 156.431 116.973 157.96C117.396 158.465 117.844 158.97 118.307 159.474C120.1 161.377 122.074 163.204 123.076 165.601C123.117 165.702 123.157 165.803 123.192 165.904C124.043 168.271 123.661 171.263 121.556 172.621C121.567 172.63 121.576 172.642 121.581 172.656V172.656C121.611 172.697 121.641 172.727 121.666 172.767C121.669 172.759 121.669 172.75 121.666 172.742C122.413 173.629 123.419 174.257 124.542 174.539L124.97 174.67C124.623 175.048 124.295 175.442 123.963 175.856L123.746 176.144C123.191 176.891 122.687 177.675 122.235 178.49C121.979 178.945 121.732 179.399 121.525 179.853C120.835 181.237 120.335 182.709 120.04 184.228C119.501 187.569 120.261 191.052 119.445 194.322C118.438 198.359 115.25 201.458 113.452 205.208C110.048 212.273 111.977 220.565 112.662 228.367C113.593 238.965 112.082 249.609 110.576 260.136C109.777 265.735 108.978 271.338 108.179 276.947C106.165 291.024 104.15 305.101 102.136 319.178C101.4 324.336 100.529 329.776 97.0995 333.758H97.1347C97.1347 333.758 97.1347 333.788 97.0995 333.798C98.1291 334.249 99.224 334.532 100.343 334.636V334.636C104.82 335.085 109.564 332.915 113.593 330.543C116.784 328.696 119.806 326.569 122.623 324.189C122.21 325.703 121.767 327.354 121.294 329.13C121.295 329.147 121.295 329.164 121.294 329.181V329.181C115.608 350.882 106.462 390.665 106.462 390.665C106.462 390.665 105.631 392.396 104.553 394.975H246.575C244.914 392.956 243.367 391.023 242.159 389.464L241.67 388.762ZM136.513 188.104C136.548 188.044 136.574 187.988 136.609 187.933C136.609 188.094 136.609 188.251 136.609 188.402C136.609 188.553 136.609 188.69 136.609 188.831C136.609 188.972 136.609 188.957 136.609 189.028C136.609 189.099 136.609 189.028 136.609 189.028C136.609 189.235 136.564 189.442 136.528 189.649C136.528 189.649 136.528 189.674 136.528 189.694L137.032 189.881L137.616 190.123C141.068 191.489 144.563 192.725 148.102 193.832C148.464 193.948 148.832 194.059 149.2 194.165L149.275 194.791C149.366 195.432 149.451 196.083 149.532 196.734C149.532 196.734 149.532 196.765 149.532 196.785C149.759 198.586 149.98 200.383 150.177 202.139C150.177 202.139 140.93 198.607 141.046 203.971C141.041 204.067 141.041 204.163 141.046 204.259C141.036 204.387 141.036 204.515 141.046 204.642C141.131 208.821 142.436 211.299 142.698 212.571C142.682 212.624 142.654 212.672 142.617 212.712C142.394 213.199 142.317 213.741 142.396 214.272C142.387 215.174 142.458 216.076 142.607 216.967C142.335 217.133 142.068 217.3 141.801 217.471C141.6 217.597 141.408 217.739 141.212 217.88C139.977 213.586 138.36 209.41 136.382 205.405C134.997 202.548 133.441 199.571 133.456 196.436C133.456 196.235 133.456 196.028 133.481 195.821C133.538 194.912 133.71 194.015 133.995 193.151C134.111 192.823 134.237 192.5 134.378 192.182C134.707 191.427 135.075 190.689 135.481 189.972C135.743 189.497 136.02 189.028 136.287 188.553C136.372 188.412 136.453 188.266 136.533 188.125L136.513 188.104ZM362.641 77.7475C362.57 77.6264 362.52 77.5053 362.465 77.3942C362.465 77.3438 362.414 77.3034 362.394 77.2529C362.284 77.3048 362.172 77.3503 362.057 77.3892C361.835 77.475 361.609 77.5557 361.377 77.6213C361.145 77.6869 361.05 77.7223 360.873 77.7626L360.425 77.8787L360.465 77.9696C360.652 77.9292 360.833 77.8939 361.019 77.8434L361.07 78.4692C361.281 78.4692 361.478 78.4389 361.669 78.4389H361.941C362.334 78.4389 362.676 78.4389 362.948 78.4389C362.842 78.2118 362.732 77.9746 362.641 77.7475Z" fill="url(#paint1_linear_4_6)"/>
<path d="M252.599 151.874L249.577 153.211C249.577 153.211 229.88 229.891 229.88 236.089C229.88 242.286 271.646 276.77 271.646 276.77L278.163 232.692C278.163 232.692 268.806 131.611 252.599 151.874Z" fill="#E8F5FF"/>
<path d="M344.213 127.483L326.763 118.359C325.785 114.183 324.051 110.223 321.646 106.675C319.092 102.981 315.698 99.3525 311.468 97.46C300.776 92.6555 356.693 67.437 356.693 67.437C357.574 70.4665 358.611 73.448 359.8 76.3697C362.681 83.4957 367.461 92.711 373.62 95.3353C384.09 99.8017 344.213 127.483 344.213 127.483Z" fill="#FFB0B1"/>
<path opacity="0.1" d="M359.8 76.3697C357.411 84.7901 352.443 92.2457 345.596 97.6835C338.75 103.121 330.372 106.267 321.646 106.675C319.092 102.981 315.698 99.3525 311.468 97.46C300.776 92.6555 356.693 67.437 356.693 67.437C357.574 70.4665 358.611 73.448 359.8 76.3697V76.3697Z" fill="black"/>
<path d="M361.372 63.6369C361.374 71.8952 358.932 79.9686 354.355 86.8361C349.777 93.7035 343.271 99.0565 335.657 102.218C328.044 105.379 319.666 106.207 311.583 104.597C303.5 102.987 296.075 99.0107 290.247 93.1716C284.419 87.3324 280.451 79.8925 278.843 71.7929C277.235 63.6933 278.06 55.2978 281.214 47.6682C284.368 40.0385 289.709 33.5176 296.562 28.93C303.414 24.3425 311.471 21.8944 319.712 21.8954C325.19 21.87 330.618 22.9323 335.683 25.0209C340.749 27.1096 345.351 30.1832 349.225 34.0643C353.098 37.9453 356.166 42.5569 358.251 47.6327C360.336 52.7085 361.397 58.1479 361.372 63.6369V63.6369Z" fill="#FFB0B1"/>
<path d="M367.385 122.123L356.023 148.689L346.001 166.323H313.92L304.563 142.214L308.355 117.213H332.857L348.675 116.32L354.019 114.533L357.464 116.491L367.385 122.123Z" fill="#575A89"/>
<path opacity="0.1" d="M363.472 86.7105C363.472 86.7105 370.558 88.2245 364.212 93.4378C357.867 98.651 335.974 115.23 335.974 115.23C335.974 115.23 343.664 122.093 342.073 130.133L367.551 115.901L372.084 93.1299C372.084 93.1299 372.593 86.2865 363.472 86.7105Z" fill="black"/>
<path opacity="0.1" d="M340.985 115.23L324.778 117.909C324.778 117.909 328.122 130.299 326.45 133.817C326.4 133.926 326.358 134.039 326.325 134.155L319.712 152.066L324.668 166.131L341.821 142.689L335.974 133.817C335.974 133.817 342.153 125.611 345.83 122.764C349.506 119.918 340.985 115.23 340.985 115.23Z" fill="black"/>
<path d="M340.985 114.538L324.778 117.213C324.778 117.213 328.122 129.603 326.45 133.12C326.4 133.23 326.358 133.343 326.325 133.458L319.712 151.369L324.668 165.434L341.821 141.977L335.974 133.105C335.974 133.105 342.153 124.899 345.83 122.053C349.506 119.206 340.985 114.538 340.985 114.538Z" fill="#DCE6F2"/>
<path d="M364.152 85.3731C364.152 85.3731 371.238 86.8871 364.887 92.1004C358.536 97.3136 335.974 115.23 335.974 115.23C335.974 115.23 344.329 120.756 342.743 128.79L368.221 114.563L372.754 91.7925C372.754 91.7925 373.257 84.9491 364.152 85.3731Z" fill="#575A89"/>
<path opacity="0.1" d="M322.759 108.255C322.759 108.255 324.305 111.152 331.129 116.375C331.129 116.375 319.768 122.431 324.114 130.945L306.734 126.403L304.059 118.03L322.759 108.255Z" fill="black"/>
<path d="M322.089 107.589C322.089 107.589 323.635 110.486 330.459 115.709C330.459 115.709 319.097 121.735 323.444 130.274L306.069 125.732L303.394 117.364L322.089 107.589Z" fill="#575A89"/>
<path opacity="0.1" d="M367.385 122.123L356.023 148.689L346.021 166.323H313.92L304.563 142.214L308.35 117.213H315.164C315.053 123.047 317.179 129.9 317.043 132.449C316.811 136.638 323.278 159.237 323.278 159.237C323.278 159.237 336.81 137.304 342.153 135.351C345.513 134.125 352.629 123.92 357.459 116.491L367.385 122.123Z" fill="black"/>
<path d="M412.142 261.923L410.989 263.376C410.989 263.376 419.344 305.4 417.033 314.944C416.64 316.664 416.415 318.418 416.363 320.182V320.258C415.955 329.968 418.881 342.57 418.881 342.57C418.881 342.57 421.218 379.713 419.888 394.99H263.452C262.535 372.401 261.548 343.135 262.445 339.89C263.956 334.535 266.977 315.11 266.977 315.11L267.31 305.905C267.31 305.905 267.31 297.008 267.582 287.096C267.698 282.64 267.869 277.961 268.116 273.813C268.433 268.595 268.876 264.199 269.485 262.039C269.861 260.402 270.077 258.732 270.13 257.053C270.13 256.896 270.13 256.735 270.16 256.573C270.16 256.069 270.211 255.524 270.231 254.963C270.231 254.807 270.231 254.651 270.231 254.459C270.326 251.209 270.291 247.353 270.185 243.356C270.185 243.139 270.185 242.917 270.185 242.695C270.1 239.697 269.974 236.639 269.833 233.732C269.395 224.648 268.826 216.967 268.826 216.967L249.612 153.176L254.79 140.398L269.158 131.576L295.724 115.502C308.683 104.828 317.214 106.11 320.467 107.281C320.783 107.389 321.093 107.515 321.394 107.66C321.495 107.71 321.575 107.75 321.651 107.796C321.754 107.845 321.854 107.902 321.948 107.967V107.967C321.057 108.397 320.283 109.036 319.692 109.83C319.026 110.733 318.551 111.764 318.297 112.858C318.127 113.536 318.007 114.226 317.939 114.922C317.874 115.654 317.849 116.411 317.849 117.173C317.884 118.844 318.027 120.511 318.277 122.164C318.277 122.194 318.277 122.234 318.277 122.275C318.443 123.456 318.649 124.611 318.851 125.697C318.849 125.715 318.849 125.734 318.851 125.752C319.082 127.019 319.314 128.19 319.47 129.199C319.5 129.381 319.526 129.547 319.551 129.704C319.662 130.371 319.714 131.046 319.707 131.722C319.764 133.355 319.983 134.978 320.362 136.567C320.493 137.233 320.644 137.945 320.81 138.687C321.037 139.696 321.283 140.796 321.55 141.917C321.696 142.532 321.852 143.168 322.014 143.799C322.074 144.051 322.139 144.304 322.2 144.561L322.301 144.96C323.373 149.234 324.537 153.489 325.252 156.063C325.675 157.577 325.942 158.51 325.942 158.51C325.942 158.51 333.526 146.222 339.58 139.227C339.671 139.126 339.751 139.03 339.837 138.939C340.436 138.248 341.025 137.617 341.589 137.062C342.823 135.83 343.931 134.952 344.823 134.629C345.013 134.559 345.196 134.473 345.372 134.372C347.85 132.964 351.848 127.851 355.59 122.497C355.958 121.992 356.315 121.442 356.678 120.922C357.509 119.721 358.315 118.515 359.075 117.359C359.66 116.476 360.219 115.618 360.747 114.801C363.265 110.874 365.038 107.947 365.038 107.947L368.533 107.791L369.143 107.76H369.551L385.42 107.024C385.42 107.024 386.105 107.14 387.233 107.367C387.293 107.367 387.354 107.367 387.419 107.407C393.05 108.528 408.693 112.075 409.649 116.996C410.818 123.022 436.049 131.061 436.049 131.061C436.382 135.099 442.561 137.758 442.561 137.758C442.561 137.758 451.919 162.538 449.416 172.248C446.943 181.836 455.852 205.556 456.089 206.222L454.381 208.382L412.142 261.923Z" fill="#E8F5FF"/>
<path opacity="0.1" d="M363.467 84.9493C363.467 84.9493 378.913 80.5586 382.423 89.5973C385.934 98.636 393.785 135.139 393.785 135.139C393.785 135.139 373.398 138.99 368.055 135.139C364.921 132.854 361.041 131.837 357.192 132.293L345.664 140.16L342.259 139.151C342.259 139.151 360.702 111.677 364.711 102.34C368.72 93.0038 370.074 88.8302 363.467 84.9493Z" fill="black"/>
<path d="M362.797 82.9305C362.797 82.9305 378.253 78.5399 381.779 87.5785C385.304 96.6172 393.141 133.12 393.141 133.12C393.141 133.12 372.759 136.971 367.41 133.12C364.278 130.835 360.4 129.818 356.552 130.274L345.014 138.142L341.61 137.132C341.61 137.132 360.052 109.658 364.061 100.322C368.07 90.9851 369.405 86.8215 362.797 82.9305Z" fill="#E8F5FF"/>
<path opacity="0.1" d="M259.116 228.554C259.116 228.554 270.644 231.4 272.82 237.931C274.995 244.461 264.298 244.628 264.298 244.628C264.298 244.628 257.781 233.076 259.116 228.554Z" fill="black"/>
<path opacity="0.1" d="M302.055 276.77C302.055 276.77 273.822 334.702 280.339 340.228C286.856 345.754 302.055 276.77 302.055 276.77Z" fill="black"/>
<path opacity="0.1" d="M340.985 234.08C340.985 234.08 363.542 290.351 359.03 299.042C354.517 307.732 368.72 299.042 368.72 299.042L340.985 234.08Z" fill="black"/>
<path d="M372.396 289.665C372.396 289.665 296.208 293.349 318.433 317.124C340.658 340.899 386.266 318.133 386.266 318.133L372.396 289.665Z" fill="#FFB0B1"/>
<path opacity="0.1" d="M361.372 63.6368C361.379 69.1125 360.306 74.5357 358.214 79.5945C357.514 79.6753 356.814 79.7257 356.139 79.756C355.132 77.5405 355.671 74.9818 355.691 72.5442C355.711 70.1067 354.815 67.2401 352.473 66.5841C347.804 65.2669 344.581 74.0128 339.978 72.4332C336.453 71.2321 337.374 65.8725 335.345 62.7788C333.738 60.3312 330.52 59.6398 328.017 58.1055C322.694 54.8302 322.855 49.5917 320.382 44.6358C317.793 39.4427 312.324 40.977 307.575 44.0403C303.969 46.3719 300.856 49.4958 296.999 51.353C293.66 52.968 289.908 53.5534 286.206 53.6392C283.927 53.7277 281.647 53.4863 279.437 52.9226C282.037 43.1288 288.102 34.6169 296.503 28.9742C304.904 23.3314 315.065 20.9431 325.094 22.2545C335.122 23.5659 344.332 28.4876 351.006 36.1017C357.68 43.7158 361.362 53.5025 361.367 63.6368H361.372Z" fill="black"/>
<path d="M307.59 42.7031C303.979 45.0346 300.872 48.1535 297.014 50.0208C293.675 51.6307 289.923 52.2161 286.221 52.3019C281.688 52.4029 276.808 51.6055 273.711 48.3251C270.866 45.2971 270.186 40.6389 271.389 36.6672C272.593 32.6954 275.479 29.3999 278.868 27.0128C282.258 24.6257 286.191 22.9754 288.437 19.5588C289.626 17.752 290.2 15.6223 291.187 13.6995C294.345 7.54754 301.446 4.2167 308.31 3.80287C315.174 3.38903 321.978 5.43801 328.516 7.65857C335.053 9.87913 341.64 12.3217 348.54 12.781C351.612 12.9728 354.805 12.781 357.655 13.9468C361.488 15.5062 364.001 19.2358 365.713 23.0309C367.632 27.3105 368.826 31.9838 368.624 36.6571C368.201 46.6345 361.624 56.4251 364.515 65.9836C365.28 68.5322 366.716 71.1464 365.95 73.695C364.832 77.4145 360.042 78.2623 356.17 78.439C355.162 76.2234 355.701 73.6597 355.721 71.2272C355.742 68.7946 354.845 65.9231 352.508 65.267C347.835 63.9599 344.611 72.6907 340.018 71.1161C336.518 69.91 337.425 64.5554 335.39 61.4618C333.783 59.009 330.56 58.3227 328.062 56.7885C322.739 53.5131 322.9 48.2746 320.427 43.3188C317.819 38.1004 312.344 39.6346 307.59 42.7031Z" fill="#575A89"/>
<path d="M233.713 234.746L229.87 236.089C229.87 236.089 231.381 258.859 226.345 265.39C221.309 271.92 242.884 288.156 242.884 288.156C242.884 288.156 272.457 287.989 273.293 285.632C274.129 283.276 271.782 243.442 271.782 243.442C271.782 243.442 255.908 237.244 257.242 227.368C257.242 227.368 252.397 250.638 245.216 249.634C238.034 248.63 229.88 242.619 233.713 234.746Z" fill="#E8F5FF"/>
<path opacity="0.1" d="M246.53 256.679C252.129 256.679 256.668 252.52 256.668 247.388C256.668 242.257 252.129 238.097 246.53 238.097C240.931 238.097 236.392 242.257 236.392 247.388C236.392 252.52 240.931 256.679 246.53 256.679Z" fill="black"/>
<path d="M257.615 235.417C257.615 235.417 255.601 173.807 238.064 187.534C220.528 201.261 220.357 217.678 223.696 222.528C227.035 227.378 237.742 251.658 237.742 251.658C239.417 252.63 241.298 253.192 243.231 253.295C245.164 253.399 247.094 253.043 248.863 252.255C250.632 251.467 252.189 250.27 253.408 248.763C254.626 247.256 255.471 245.481 255.873 243.583L257.615 235.417Z" fill="#FFB0B1"/>
<path opacity="0.1" d="M367.007 79.3574C366.926 79.0867 366.768 78.8451 366.554 78.661C365.688 77.8686 363.824 77.5911 361.014 77.8333L361.13 79.1656C364.877 78.8426 365.617 79.5896 365.713 79.7157V79.8419L365.829 80.0084C366.296 80.6376 366.627 81.3577 366.8 82.1224C366.974 82.8872 366.986 83.6798 366.836 84.4496C366.015 88.5626 360.974 91.838 360.924 91.8733L360.803 91.944L360.727 92.06C358.551 95.295 346.248 104.425 343.03 106.786L342.748 106.463C341.307 107.715 328.646 118.823 327.961 123.077C327.518 125.747 324.517 126.782 323.429 127.069C322.28 126.196 318.554 123.224 316.615 119.893C314.797 116.759 322.114 110.642 322.759 108.255L321.752 107.22C321.646 107.604 312.248 116.405 314.862 120.902C316.957 124.51 320.785 127.599 322.124 128.619C321.696 132.515 319.032 155.391 314.938 160.812C309.851 167.549 305.575 201.503 306.049 213.358C306.467 223.891 303.722 243.785 294.556 252.329C292.969 253.873 291.055 255.038 288.956 255.737C286.857 256.436 284.627 256.651 282.434 256.366H282.323H282.212C282.081 256.366 268.785 257.729 257.615 248.292C248.474 240.585 243.297 228.009 242.219 210.9H241.998L241.907 205.919C244.385 205.532 246.617 204.197 248.134 202.194C249.651 200.192 250.334 197.679 250.04 195.183C249.746 192.686 248.498 190.401 246.558 188.808C244.619 187.214 242.138 186.436 239.637 186.637C237.137 186.837 234.812 188.002 233.15 189.884C231.488 191.767 230.619 194.222 230.726 196.734C230.833 199.245 231.906 201.617 233.722 203.352C235.537 205.086 237.953 206.048 240.461 206.035H240.572L240.663 210.986L240.22 211.016C241.328 228.68 246.767 241.746 256.336 249.816C263.609 255.855 272.899 258.902 282.328 258.34C282.997 258.413 283.669 258.45 284.342 258.451C288.664 258.473 292.823 256.797 295.926 253.782C305.58 244.774 308.516 224.148 308.058 213.257C307.554 200.696 312.042 167.963 316.544 162.003C320.956 156.153 323.63 133.362 324.098 128.947C325.695 128.497 329.306 127.079 329.92 123.395C330.364 120.73 338.819 112.519 344.022 107.972L343.866 107.791C346.666 105.742 355.374 99.2819 359.69 95.1335C361.029 93.8466 362.359 92.5597 363.749 91.3333C365.421 89.8496 367.546 87.4927 368.105 84.7069C368.296 83.7874 368.297 82.8384 368.108 81.9185C367.919 80.9985 367.545 80.127 367.007 79.3574V79.3574Z" fill="black"/>
<path d="M321.953 128.3C321.742 128.154 316.726 124.556 314.213 120.226C311.604 115.729 321.001 106.933 321.102 106.549L322.109 107.584C321.47 109.966 314.152 116.087 315.97 119.216C318.262 123.168 323.086 126.625 323.137 126.66L321.953 128.3Z" fill="#353146"/>
<path d="M342.375 107.766L341.59 106.68C341.751 106.564 357.57 95.0982 360.063 91.3889L360.143 91.2779L360.259 91.2022C360.309 91.1668 365.351 87.8965 366.172 83.7784C366.323 83.0095 366.311 82.2174 366.138 81.4532C365.964 80.689 365.633 79.9699 365.164 79.3423L365.048 79.1708V79.0496C364.948 78.9184 364.207 78.1765 360.46 78.4995L360.345 77.1622C363.16 76.9199 365.018 77.1975 365.884 77.9898C366.1 78.1758 366.259 78.4189 366.343 78.6913C366.887 79.4586 367.269 80.3296 367.465 81.2505C367.661 82.1714 367.666 83.1228 367.481 84.0459C366.922 86.8367 364.802 89.1936 363.125 90.6722C361.74 91.8986 360.405 93.1956 359.07 94.4724C354.009 99.3324 342.929 107.367 342.375 107.766Z" fill="#E8F5FF"/>
<path d="M241.257 204.162L239.923 204.187L240.071 212.316L241.406 212.291L241.257 204.162Z" fill="#E8F5FF"/>
<path d="M239.812 205.394C245.194 205.394 249.557 201.022 249.557 195.629C249.557 190.236 245.194 185.864 239.812 185.864C234.43 185.864 230.067 190.236 230.067 195.629C230.067 201.022 234.43 205.394 239.812 205.394Z" fill="#587EEC"/>
<path d="M239.812 203.739C244.282 203.739 247.905 200.108 247.905 195.629C247.905 191.15 244.282 187.519 239.812 187.519C235.342 187.519 231.719 191.15 231.719 195.629C231.719 200.108 235.342 203.739 239.812 203.739Z" fill="#E8F5FF"/>
<path d="M283.708 257.8C283.035 257.801 282.362 257.765 281.693 257.694C272.265 258.25 262.977 255.204 255.701 249.17C246.132 241.095 240.703 228.044 239.585 210.365L241.6 210.239C242.677 227.348 247.855 239.929 257.001 247.63C268.171 257.043 281.462 255.705 281.593 255.705H281.703H281.814C284.008 255.989 286.238 255.773 288.338 255.074C290.437 254.375 292.353 253.211 293.941 251.668C303.102 243.124 305.847 223.23 305.429 212.697C304.926 200.832 309.201 166.878 314.293 160.145C318.75 154.246 321.515 127.655 321.545 127.387L321.621 126.63L322.366 126.499C322.411 126.499 326.763 125.671 327.307 122.411C328.012 118.162 340.653 107.054 342.088 105.797L343.402 107.311C338.18 111.853 329.724 120.069 329.301 122.739C328.687 126.433 325.076 127.846 323.484 128.29C322.98 132.711 320.326 155.497 315.93 161.347C311.427 167.307 306.94 200.04 307.444 212.601C307.877 223.492 304.971 244.123 295.316 253.126C292.208 256.148 288.039 257.827 283.708 257.8Z" fill="#353146"/>
<g opacity="0.1">
<path opacity="0.1" d="M365.663 51.7063C366.489 48.648 367.486 45.5695 368.181 42.4708C367.35 45.5847 366.348 48.648 365.663 51.7063Z" fill="black"/>
<path opacity="0.1" d="M357.237 75.7389C356.23 73.5234 356.769 70.9597 356.789 68.5271C356.809 66.0946 355.913 63.2482 353.576 62.5669C348.902 61.2598 345.679 69.9957 341.086 68.4161C337.561 67.2099 338.492 61.8554 336.458 58.7617C334.851 56.309 331.633 55.6226 329.135 54.0884C323.806 50.8131 323.968 45.5746 321.5 40.6187C318.906 35.4206 313.442 36.9548 308.688 40.0232C305.077 42.3548 301.969 45.4787 298.112 47.341C294.772 48.9509 291.02 49.5363 287.319 49.6221C282.811 49.7281 277.906 48.9256 274.809 45.6453C272.422 43.1219 271.56 39.4226 272.054 35.9555C271.968 36.1927 271.893 36.4299 271.817 36.6671C270.609 40.6389 271.314 45.3071 274.139 48.3251C277.236 51.6054 282.142 52.4028 286.649 52.3019C290.356 52.2161 294.103 51.6307 297.447 50.0208C301.315 48.1535 304.422 45.0346 308.023 42.703C312.777 39.6346 318.246 38.1004 320.835 43.2985C323.303 48.2544 323.147 53.4929 328.47 56.7683C330.988 58.2823 334.186 58.9888 335.798 61.4415C337.812 64.5453 336.921 69.8897 340.426 71.0959C345.014 72.6705 348.237 63.9397 352.911 65.2468C355.248 65.9028 356.149 68.7795 356.124 71.2069C356.099 73.6344 355.575 76.2032 356.572 78.4187C360.445 78.2421 365.235 77.4094 366.358 73.6748C366.512 73.1388 366.584 72.5822 366.569 72.0245C364.933 74.8557 360.722 75.5825 357.237 75.7389Z" fill="black"/>
</g>
<path opacity="0.1" d="M448.257 200.09L454.105 206.288C454.105 206.288 458.783 240.439 461.12 243.634C463.457 246.828 468.977 259.536 463.794 269.079C463.794 269.079 462.122 274.272 463.124 276.447C464.127 278.622 455.61 289.508 455.61 289.508C455.61 289.508 444.415 299.551 442.073 301.06C439.731 302.569 427.372 314.621 423.197 314.787C419.022 314.954 417.657 320.147 417.657 320.147L394.098 320.985C394.098 320.985 381.084 320.303 378.254 322.145C378.254 322.145 379.764 302.221 365.225 289.16L383.768 282.463C383.768 282.463 390.789 279.435 392.959 276.271C394.325 274.331 396.262 272.868 398.499 272.087C398.499 272.087 403.677 268.403 403.843 266.394C404.009 264.386 410.173 261.923 410.173 261.923L406.683 232.071L408.521 182.513C408.521 182.513 414.369 140.988 426.733 143.335C439.097 145.682 448.257 200.09 448.257 200.09Z" fill="black"/>
<path d="M450.272 200.09L456.119 206.288C456.119 206.288 460.798 240.439 463.134 243.634C465.471 246.828 470.991 259.536 465.809 269.079C465.809 269.079 464.142 274.272 465.144 276.447C466.146 278.622 457.625 289.508 457.625 289.508C457.625 289.508 446.429 299.551 444.087 301.06C441.745 302.569 429.386 314.621 425.211 314.787C421.036 314.954 419.672 320.147 419.672 320.147L396.112 320.985C396.112 320.985 383.088 320.303 380.268 322.145C380.268 322.145 381.779 302.221 367.239 289.16L385.783 282.463C385.783 282.463 392.803 279.435 394.974 276.271C396.339 274.331 398.276 272.868 400.514 272.087C400.514 272.087 405.691 268.403 405.857 266.394C406.023 264.386 412.188 261.923 412.188 261.923L408.698 232.071L410.536 182.513C410.536 182.513 416.383 140.988 428.747 143.335C441.111 145.682 450.272 200.09 450.272 200.09Z" fill="#E8F5FF"/>
<path opacity="0.1" d="M428.535 250.154C428.535 250.154 445.744 245.612 450.257 251.163C454.769 256.715 428.535 250.154 428.535 250.154Z" fill="black"/>
<path opacity="0.1" d="M424.527 257.769C430.374 261.872 448.419 262.039 448.419 262.039L424.527 257.769Z" fill="black"/>
<path opacity="0.1" d="M433.38 278.279C433.884 278.446 445.785 291.174 450.781 287.323C455.776 283.472 433.38 278.279 433.38 278.279Z" fill="black"/>
<path opacity="0.1" d="M273.107 171.46C273.107 171.46 276.602 195.574 274.879 205.394C273.157 215.215 279.442 227.383 279.442 227.383L273.107 171.46Z" fill="black"/>
<path d="M195.73 181.266C191.701 184.43 188.759 191.92 186.629 200.151C182.912 214.509 181.699 231.158 181.699 231.158C181.699 231.158 149.618 223.79 151.954 220.444C153.425 218.339 151.451 202.482 149.804 190.986C148.822 184.193 147.946 178.919 147.946 178.919C147.946 178.919 206.759 172.555 195.73 181.266Z" fill="#FFB0B1"/>
<path opacity="0.1" d="M195.73 180.595C191.701 183.764 188.759 191.248 186.629 199.48C180.237 201.425 173.439 201.6 166.956 199.987C160.473 198.375 154.546 195.034 149.804 190.32C148.822 183.522 147.946 178.248 147.946 178.248C147.946 178.248 206.759 171.889 195.73 180.595Z" fill="black"/>
<path d="M212.974 162.558C212.977 171.336 209.881 179.832 204.234 186.542C198.588 193.253 190.754 197.745 182.119 199.224C173.485 200.704 164.607 199.074 157.056 194.624C149.505 190.175 143.769 183.192 140.862 174.911C137.955 166.631 138.065 157.587 141.173 149.38C144.281 141.173 150.185 134.332 157.842 130.069C165.499 125.805 174.415 124.393 183.01 126.083C191.606 127.773 199.328 132.456 204.81 139.302C210.092 145.898 212.972 154.101 212.974 162.558V162.558Z" fill="#FFB0B1"/>
<path opacity="0.1" d="M242.224 394.99H231.648L230.757 376.272L229.825 356.897C229.825 356.897 232.227 356.539 236.055 356.004L237.601 355.797H237.727C238.563 359.728 239.389 363.766 240.184 367.798C241.509 374.957 242.198 382.219 242.244 389.499C242.244 390.004 242.244 390.508 242.244 390.983C242.274 392.33 242.244 393.678 242.224 394.99Z" fill="black"/>
<path d="M240.195 394.99H107.56C108.134 393.683 108.517 392.89 108.517 392.89C108.517 392.89 119.128 346.37 124.522 326.688C124.524 326.671 124.524 326.654 124.522 326.637C125.196 323.963 126.009 321.327 126.959 318.739V318.739C127.021 318.563 127.1 318.394 127.196 318.234C129.865 313.884 133.209 309.196 128.531 302.499C123.852 295.802 125.509 266.334 125.509 266.334C125.509 266.334 131.19 241.216 137.203 227.822C138.116 225.747 139.411 223.864 141.021 222.271C141.544 221.758 142.103 221.282 142.693 220.848V220.848C143.141 220.51 143.609 220.198 144.093 219.914L144.188 219.853C146.715 218.418 149.52 217.545 152.413 217.295C154.468 217.079 156.542 217.137 158.582 217.466C168.332 218.9 176.138 221.297 182.343 224.027C199.159 231.431 204.251 241.352 204.352 241.559L204.392 241.645C205.067 243.225 214.938 266.319 218.493 277.093C219.415 279.899 219.919 281.873 219.717 282.413C218.71 285.087 227.402 318.572 227.402 318.572C227.402 318.572 231.431 334.722 235.46 353.652C235.637 354.439 235.803 355.227 235.964 356.024C236.684 359.461 237.399 362.963 238.089 366.461C239.426 373.669 240.116 380.982 240.149 388.313C240.223 390.598 240.238 392.823 240.195 394.99Z" fill="#EB5569"/>
<path opacity="0.1" d="M151.622 205.778C151.622 205.778 142.471 202.245 142.582 207.605C142.693 212.965 144.813 215.528 144.143 216.311C143.473 217.093 144.476 221.781 144.476 221.781C144.476 221.781 156.84 221.781 162.52 224.345C168.201 226.909 189.142 232.046 191.816 233.611C194.491 235.175 204.407 242.19 204.407 242.19L205.298 228.907C205.298 228.907 195.05 220.424 178.234 216.073C161.418 211.723 151.622 205.778 151.622 205.778Z" fill="black"/>
<path d="M151.622 205.107C151.622 205.107 142.471 201.574 142.582 206.934C142.693 212.293 144.813 214.857 144.143 215.639C143.473 216.422 144.476 221.11 144.476 221.11C144.476 221.11 156.84 221.11 162.52 223.679C168.201 226.248 189.142 231.38 191.816 232.939C194.491 234.499 204.407 241.519 204.407 241.519L205.308 228.276C205.308 228.276 195.06 219.793 178.244 215.442C161.428 211.092 151.622 205.107 151.622 205.107Z" fill="#EB5569"/>
<path opacity="0.1" d="M179.246 237.073C179.246 237.073 196.732 256.043 195.84 261.297C194.949 266.551 179.246 237.073 179.246 237.073Z" fill="black"/>
<path opacity="0.1" d="M150.841 305.602C150.841 305.602 138.024 317.437 134.247 318.108C130.47 318.779 137.143 321.01 141.484 319.228C145.825 317.447 155.082 312.759 155.082 312.759L150.841 305.602Z" fill="black"/>
<path d="M245.402 394.99H215.512C211.332 391.356 207.378 387.99 204.86 385.966C200.831 382.726 197.925 377.957 196.072 374.122C195.654 373.249 195.291 372.431 194.984 371.689C194.434 370.411 193.95 369.106 193.534 367.778L215.668 354.606C216.891 355.648 218.041 356.775 219.108 357.977L219.375 358.285C220.603 359.739 221.686 361.389 221.782 362.741C221.893 364.316 226.264 370.407 230.731 376.257C235.264 382.207 239.907 387.894 240.215 388.278C240.215 388.278 240.98 389.323 242.229 390.927C243.11 392.088 244.198 393.481 245.402 394.99Z" fill="#FFB0B1"/>
<path opacity="0.1" d="M204.81 139.302C203.747 141.705 202.795 144.198 202.654 146.873C202.257 154.594 202.901 171.859 194.37 175.735C190.144 177.643 185.622 173.454 180.988 173.353C177.654 173.282 174.597 175.402 172.563 178.051C170.528 180.701 169.264 183.845 167.788 186.843C166.445 189.564 164.898 192.179 163.16 194.665C162.641 195.426 162.069 196.15 161.448 196.83C156.246 194.63 151.613 191.27 147.904 187.004C144.194 182.739 141.505 177.681 140.041 172.217C138.577 166.752 138.378 161.025 139.458 155.471C140.538 149.917 142.868 144.684 146.272 140.17C149.676 135.655 154.063 131.979 159.1 129.421C164.136 126.864 169.689 125.492 175.334 125.41C180.98 125.328 186.57 126.539 191.678 128.95C196.786 131.361 201.277 134.909 204.81 139.323V139.302Z" fill="black"/>
<path d="M201.985 145.51C201.582 153.231 202.231 170.496 193.695 174.367C189.469 176.275 184.947 172.091 180.314 171.99C176.98 171.914 173.928 174.039 171.888 176.683C169.848 179.328 168.594 182.477 167.114 185.48C165.77 188.201 164.223 190.816 162.485 193.302C161.448 194.776 160.299 196.255 158.703 197.082C155.923 198.536 152.554 197.718 149.572 196.785C145.704 195.563 141.894 194.187 138.14 192.656C138.226 192.088 138.27 191.515 138.271 190.941C138.16 191.152 138.039 191.349 137.918 191.561L137.682 191.975C137.254 192.732 136.836 193.489 136.453 194.266C136.307 194.564 136.166 194.872 136.04 195.18C135.533 196.325 135.215 197.546 135.098 198.793C134.841 202.159 136.498 205.354 137.969 208.382C143.624 220.095 147.12 233.792 142.864 246.081C141.021 251.426 137.828 256.175 135.496 261.337C131.42 270.481 130.22 280.653 132.056 290.497C133.22 296.614 135.551 302.67 134.977 308.872C133.97 319.546 124.784 327.49 115.583 332.95C110.612 335.888 104.528 338.502 99.25 336.18C102.614 332.244 103.48 326.798 104.206 321.661C106.19 307.648 108.179 293.628 110.174 279.601C110.969 274.02 111.763 268.438 112.556 262.856C114.036 252.369 115.537 241.766 114.611 231.213C113.936 223.436 112.032 215.18 115.396 208.14C117.174 204.41 120.342 201.322 121.329 197.304C122.14 194.039 121.384 190.567 121.918 187.241C122.21 185.728 122.705 184.261 123.389 182.881C124.259 181.008 125.396 179.27 126.763 177.723C125.413 177.329 124.154 176.789 123.389 175.659C125.554 174.246 125.882 171.061 124.9 168.669C123.918 166.277 121.953 164.455 120.186 162.568C118.418 160.68 116.716 158.48 116.494 155.906C116.066 151.006 120.951 147.211 121.812 142.376C122.684 137.455 119.239 132.671 119.516 127.69C119.838 121.669 125.358 117.294 130.807 114.755C139.03 110.941 148.114 109.373 157.137 110.213C164.48 110.909 171.586 113.186 178.908 114.069C183.325 114.573 187.802 114.624 192.189 115.401C196.576 116.178 200.972 117.818 204.059 121.043C212.198 129.547 202.448 136.547 201.985 145.51Z" fill="#575A89"/>
<path opacity="0.1" d="M195.175 374.127C192.607 373.011 187.933 373.678 179.91 371.23C171.888 368.782 170.342 357.72 170.342 357.72V357.685C170.246 357.432 169.501 355.787 164.454 350.024C158.879 343.66 146.827 311.517 146.827 311.517C146.827 311.517 136.14 300.016 136.478 295.776C136.815 291.537 134.579 280.258 134.801 267.641C135.022 255.024 158.859 246.656 158.859 246.656C204.754 238.506 193.947 291.527 192.723 295.544C191.499 299.561 197.85 310.412 197.85 310.412C196.953 315.136 201.526 322.448 201.526 322.448C201.526 322.448 202.634 328.918 202.861 331.376C202.873 331.489 202.899 331.601 202.936 331.709C203.672 334.025 209.665 336.125 212.102 337.402C214.666 338.744 222.91 350.463 222.91 350.463C224.688 359.067 197.734 375.257 195.175 374.127Z" fill="black"/>
<path d="M196.51 372.108C193.947 370.988 189.268 371.659 181.25 369.206C173.233 366.753 171.681 355.701 171.681 355.701V355.666C171.591 355.408 170.84 353.768 165.794 348.005C160.219 341.641 148.167 309.493 148.167 309.493C148.167 309.493 137.48 297.997 137.813 293.758C138.145 289.518 135.919 278.239 136.141 265.632C136.362 253.025 160.184 244.663 160.184 244.663C206.079 236.512 195.271 289.533 194.047 293.551C192.824 297.568 199.174 308.418 199.174 308.418C198.278 313.142 202.851 320.455 202.851 320.455C202.851 320.455 203.959 326.925 204.19 329.382C204.199 329.496 204.223 329.608 204.261 329.715C204.996 332.032 210.989 334.131 213.432 335.408C215.99 336.746 224.24 348.469 224.24 348.469C226.028 357.059 199.074 373.249 196.51 372.108Z" fill="#EB5569"/>
<path opacity="0.1" d="M161.09 272.344C161.09 272.344 181.139 293.541 186.372 293.541C191.605 293.541 161.09 272.344 161.09 272.344Z" fill="black"/>
<path d="M196.51 372.108C193.947 370.988 189.268 371.659 181.25 369.206C173.232 366.753 171.681 355.701 171.681 355.701V355.666C176.995 352.133 190.451 342.156 195.755 338.507C199.486 335.948 202.533 332.188 204.316 329.695C205.052 332.012 211.045 334.111 213.487 335.388C216.046 336.725 224.295 348.449 224.295 348.449C226.027 357.059 199.073 373.249 196.51 372.108Z" fill="#FF748E"/>
<g opacity="0.1">
<path opacity="0.1" d="M123.419 175.714C123.444 175.754 123.479 175.79 123.51 175.83C123.661 175.638 123.817 175.447 123.978 175.265C123.806 175.432 123.619 175.583 123.419 175.714Z" fill="black"/>
<path opacity="0.1" d="M135.103 198.849C135.315 196.048 136.81 193.58 138.21 191.117C137.294 190.764 136.377 190.406 135.471 190.032C135.557 189.466 135.601 188.894 135.602 188.321C134.186 190.845 132.645 193.328 132.429 196.169C132.172 199.54 133.829 202.73 135.299 205.758C140.96 217.466 144.45 231.163 140.195 243.457C138.346 248.796 135.158 253.55 132.827 258.713C128.752 267.856 127.554 278.026 129.392 287.868C130.545 293.99 132.882 300.041 132.308 306.243C131.301 316.917 122.12 324.861 112.913 330.316C109.151 332.547 104.755 334.591 100.549 334.444C100.16 335.072 99.7258 335.671 99.25 336.236C104.533 338.573 110.612 335.943 115.583 332.996C124.794 327.545 133.995 319.622 135.002 308.928C135.576 302.726 133.24 296.675 132.081 290.553C130.243 280.712 131.437 270.543 135.506 261.398C137.823 256.24 141.046 251.481 142.874 246.142C147.13 233.848 143.634 220.151 137.979 208.443C136.513 205.394 134.846 202.22 135.103 198.849Z" fill="black"/>
<path opacity="0.1" d="M204.049 121.104C203.554 120.595 203.022 120.122 202.458 119.691C208.562 127.624 199.748 134.367 199.31 142.906C198.917 150.627 199.562 167.897 191.026 171.763C186.805 173.676 182.278 169.487 177.649 169.386C174.31 169.315 171.258 171.44 169.219 174.084C167.179 176.729 165.925 179.878 164.449 182.876C163.103 185.596 161.554 188.211 159.816 190.698C158.809 192.177 157.63 193.651 156.029 194.483C153.259 195.932 149.889 195.119 146.903 194.181C143.999 193.265 141.121 192.256 138.271 191.152C138.265 191.678 138.221 192.203 138.14 192.722C141.897 194.256 145.709 195.632 149.577 196.85C152.559 197.789 155.928 198.601 158.703 197.153C160.299 196.32 161.458 194.842 162.49 193.363C164.23 190.879 165.777 188.266 167.118 185.546C168.599 182.548 169.848 179.394 171.893 176.749C173.938 174.105 176.985 171.985 180.319 172.056C184.952 172.157 189.479 176.345 193.7 174.433C202.236 170.567 201.587 153.297 201.984 145.575C202.448 136.597 212.198 129.603 204.049 121.104Z" fill="black"/>
</g>
<path opacity="0.1" d="M137.687 191.98C137.259 192.737 136.841 193.494 136.458 194.271C136.312 194.569 136.171 194.877 136.045 195.185C133.406 192.52 126.98 186.187 123.394 184.223C124.266 182.351 125.402 180.614 126.768 179.066C126.768 179.066 135.315 183.593 137.687 191.98Z" fill="black"/>
<path d="M137.923 191.566C135.944 182.588 126.768 177.728 126.768 177.728C125.401 179.275 124.264 181.013 123.394 182.886C127.176 184.96 134.146 191.915 136.458 194.271L137.923 191.566Z" fill="#EB5569"/>
<defs>
<linearGradient id="paint0_linear_4_6" x1="367.662" y1="48.1434" x2="367.662" y2="38.8675" gradientUnits="userSpaceOnUse">
<stop stop-color="#808080" stop-opacity="0.25"/>
<stop offset="0.54" stop-color="#808080" stop-opacity="0.12"/>
<stop offset="1" stop-color="#808080" stop-opacity="0.1"/>
</linearGradient>
<linearGradient id="paint1_linear_4_6" x1="231049" y1="332329" x2="231049" y2="23170.7" gradientUnits="userSpaceOnUse">
<stop stop-color="#808080" stop-opacity="0.25"/>
<stop offset="0.54" stop-color="#808080" stop-opacity="0.12"/>
<stop offset="1" stop-color="#808080" stop-opacity="0.1"/>
</linearGradient>
</defs>
</svg>
