<svg width="130" height="32" viewBox="0 0 130 32" fill="none" xmlns="http://www.w3.org/2000/svg">
<g clip-path="url(#clip0_70_3)">
<path d="M10.0908 0.988689C11.5155 0.489174 13.0813 1.16285 13.5874 2.49273C13.9748 3.51091 13.6281 4.61769 12.8063 5.30529L13.2504 6.51626L13.9569 7.33156C14.1182 7.51815 14.3628 7.60735 14.608 7.57723C15.2691 7.49588 15.926 7.49283 16.5693 7.56044C16.7873 7.58361 17.0042 7.5116 17.1607 7.35952L17.6705 6.8661L18.0464 5.77185C17.7266 5.33293 17.6183 4.75165 17.8079 4.19933C18.1297 3.26306 19.1807 2.77916 20.1154 3.16256C20.9206 3.49245 21.3587 4.38808 21.123 5.22153C20.9732 5.75239 20.5941 6.15 20.1276 6.34678L19.7115 7.55944L19.8064 8.22758C19.839 8.45726 19.9754 8.65791 20.1747 8.77818C20.8446 9.18474 21.4599 9.6817 22.0001 10.2562C22.1816 10.4496 22.4524 10.5325 22.7127 10.4801L24.0525 10.2111L25.5661 9.37167C25.5739 8.6274 25.9717 7.90786 26.6719 7.51947C27.7306 6.93263 29.0714 7.32701 29.6355 8.40237C30.1448 9.3725 29.8251 10.592 28.9027 11.1892C28.1824 11.6547 27.3035 11.6377 26.6251 11.2402L25.1025 12.084L24.2523 12.9871C24.0241 13.2294 23.9428 13.572 24.0299 13.8928C24.0304 13.8947 24.0307 13.896 24.0312 13.8979C24.1802 14.4507 24.2706 15.0063 24.308 15.557C24.3297 15.8851 24.5154 16.1803 24.8062 16.3371L25.9159 16.9353L28.1154 17.35C28.5031 17.0124 29.0372 16.8491 29.583 16.9515C30.5615 17.1363 31.1915 18.1048 30.9408 19.0797C30.7251 19.9145 29.9025 20.4703 29.0423 20.3609C28.4557 20.2863 27.9821 19.9338 27.7278 19.4598L25.5141 19.0427L24.1487 19.2089C23.897 19.24 23.6772 19.3975 23.5746 19.628C23.166 20.5379 22.6023 21.3748 21.9063 22.0973C21.7334 22.2768 21.6685 22.5338 21.7313 22.7744L22.0706 24.0843L22.9084 25.3942C23.8299 25.2563 24.7888 25.6536 25.3208 26.4856C26.0359 27.6034 25.7115 29.0834 24.5985 29.8046C23.4861 30.5257 21.9723 30.2119 21.2432 29.1081C20.7327 28.3353 20.7271 27.382 21.1409 26.6257L20.2515 25.2354L19.158 24.3384C18.9961 24.2048 18.7754 24.1695 18.5778 24.2397C18.3585 24.3178 18.1349 24.3876 17.9062 24.4485C16.6635 24.7796 15.4106 24.8223 14.2189 24.6198C14.0442 24.5905 13.8655 24.6402 13.7319 24.7557L13.1451 25.2642L12.7086 26.336C13.0039 26.7923 13.0793 27.3783 12.8594 27.919C12.4856 28.8366 11.4092 29.2616 10.4976 28.8274C9.71253 28.4535 9.32478 27.535 9.60655 26.7157C9.78598 26.1939 10.1858 25.8178 10.6628 25.6473L11.1463 24.4594L11.0565 23.4161C10.1846 22.8717 9.40878 22.1731 8.77435 21.3474L7.2832 21.4942L5.88752 22.1823C5.89661 23.1158 5.41482 24.0039 4.56918 24.4338C3.37426 25.0407 1.90648 24.5034 1.29117 23.2331C0.67604 21.9634 1.14521 20.4421 2.34012 19.8352C3.23433 19.3809 4.28073 19.5673 5.00879 20.2224L6.32504 19.573L7.23849 18.5962C7.29819 18.5323 7.32028 18.4424 7.29764 18.3584L7.2973 18.3571C6.87513 16.7902 6.91822 15.2063 7.34175 13.7506C7.36449 13.6707 7.3474 13.5846 7.29352 13.521L6.50546 12.5826L4.80758 11.6942C4.33992 11.8994 3.7855 11.8988 3.29793 11.6434C2.41711 11.182 2.09972 10.0748 2.62476 9.21569C3.0857 8.46241 4.06747 8.17642 4.86469 8.5626C5.38073 8.81243 5.71362 9.27968 5.81203 9.79656L7.5099 10.6849L8.71844 10.7983C8.80234 10.8064 8.88406 10.7711 8.93737 10.7061C9.48547 10.0312 10.138 9.43542 10.8792 8.9467C11.0826 8.81192 11.209 8.58863 11.2122 8.34534L11.2247 7.25177L10.751 5.96133C9.72409 5.88759 8.79512 5.26768 8.42697 4.30058C7.9209 2.97071 8.66593 1.48757 10.0908 0.988689Z" fill="#EC5863"/>
<path d="M21.8598 14.4765C20.9429 11.0737 17.4259 9.05425 14.0042 9.96605C10.5825 10.8778 8.55194 14.3756 9.46877 17.7785C10.3856 21.1813 13.9027 23.2008 17.3243 22.289C20.746 21.3772 22.7766 17.8794 21.8598 14.4765Z" fill="#F58A97"/>
<path d="M16.8184 20.4109C13.7176 21.2372 10.5387 19.6565 9.28725 16.8204C9.32267 17.1391 9.38276 17.4592 9.46878 17.7785C10.3856 21.1814 13.9026 23.2008 17.3243 22.289C20.7461 21.3771 22.7766 17.8795 21.8598 14.4765C21.7737 14.1573 21.6649 13.8502 21.5353 13.5566C21.8773 16.635 19.919 19.5847 16.8184 20.4109Z" fill="#F07281"/>
<path d="M7.19403 29.496C6.93294 28.5269 5.93138 27.9518 4.95698 28.2115C3.98258 28.4711 3.40433 29.4672 3.66542 30.4362C3.92651 31.4053 4.92807 31.9804 5.90247 31.7207C6.87687 31.4611 7.45512 30.465 7.19403 29.496Z" fill="#EB5569"/>
<path d="M29.9806 23.9379C29.8081 23.2979 29.1466 22.918 28.503 23.0895C27.8594 23.261 27.4774 23.9189 27.6499 24.559C27.8223 25.1991 28.4839 25.5789 29.1275 25.4074C29.7711 25.2359 30.153 24.578 29.9806 23.9379Z" fill="#EB5569"/>
<path d="M26.7129 2.00213C26.4589 1.05936 25.4845 0.499875 24.5365 0.75249C23.5885 1.0051 23.0259 1.97416 23.2799 2.91693C23.5339 3.8597 24.5083 4.41918 25.4563 4.16656C26.4043 3.91395 26.9669 2.9449 26.7129 2.00213Z" fill="#EB5569"/>
<path d="M16.0655 18.0477C15.8287 17.1687 14.9202 16.6471 14.0364 16.8826C13.1526 17.1181 12.6281 18.0216 12.8649 18.9005C13.1018 19.7795 14.0102 20.3011 14.894 20.0656C15.7778 19.8301 16.3023 18.9266 16.0655 18.0477Z" fill="#EB5569"/>
<path d="M20.1808 15.5818C20.0196 14.9835 19.4013 14.6285 18.7997 14.7888C18.1981 14.9491 17.8411 15.564 18.0023 16.1623C18.1635 16.7606 18.7819 17.1156 19.3834 16.9553C19.985 16.795 20.342 16.18 20.1808 15.5818Z" fill="#EB5569"/>
<path d="M15.8278 13.0961C15.6924 12.5937 15.1732 12.2956 14.6681 12.4302C14.1629 12.5648 13.8632 13.0812 13.9985 13.5835C14.1339 14.0859 14.6531 14.384 15.1582 14.2494C15.6634 14.1148 15.9632 13.5984 15.8278 13.0961Z" fill="#EB5569"/>
<path d="M47.462 22.1415C46.322 22.1415 45.338 21.9555 44.51 21.5835C43.694 21.1995 43.058 20.6475 42.602 19.9275C42.158 19.1955 41.912 18.3075 41.864 17.2635C41.852 16.7475 41.846 16.2015 41.846 15.6255C41.846 15.0375 41.852 14.4795 41.864 13.9515C41.912 12.9315 42.164 12.0675 42.62 11.3595C43.076 10.6515 43.718 10.1115 44.546 9.73955C45.374 9.36755 46.346 9.18155 47.462 9.18155C48.362 9.18155 49.16 9.29555 49.856 9.52355C50.552 9.73955 51.134 10.0335 51.602 10.4055C52.082 10.7775 52.442 11.1855 52.682 11.6295C52.934 12.0735 53.066 12.5115 53.078 12.9435C53.09 13.0515 53.054 13.1415 52.97 13.2135C52.898 13.2855 52.808 13.3215 52.7 13.3215H50.072C49.94 13.3215 49.838 13.3035 49.766 13.2675C49.706 13.2195 49.652 13.1535 49.604 13.0695C49.52 12.8895 49.394 12.7035 49.226 12.5115C49.07 12.3075 48.848 12.1335 48.56 11.9895C48.284 11.8455 47.918 11.7735 47.462 11.7735C46.778 11.7735 46.238 11.9535 45.842 12.3135C45.458 12.6735 45.248 13.2495 45.212 14.0415C45.176 15.0735 45.176 16.1175 45.212 17.1735C45.248 18.0135 45.47 18.6195 45.878 18.9915C46.286 19.3635 46.826 19.5495 47.498 19.5495C47.954 19.5495 48.356 19.4715 48.704 19.3155C49.064 19.1595 49.346 18.9195 49.55 18.5955C49.754 18.2595 49.856 17.8335 49.856 17.3175V16.9755H48.164C48.032 16.9755 47.918 16.9335 47.822 16.8495C47.738 16.7535 47.696 16.6395 47.696 16.5075V15.1755C47.696 15.0435 47.738 14.9355 47.822 14.8515C47.918 14.7555 48.032 14.7075 48.164 14.7075H52.7C52.832 14.7075 52.94 14.7555 53.024 14.8515C53.108 14.9355 53.15 15.0435 53.15 15.1755V17.2275C53.15 18.2595 52.916 19.1415 52.448 19.8735C51.98 20.6055 51.314 21.1695 50.45 21.5655C49.598 21.9495 48.602 22.1415 47.462 22.1415ZM59.4451 22.1415C58.4371 22.1415 57.5851 21.9795 56.8891 21.6555C56.2051 21.3315 55.6771 20.8695 55.3051 20.2695C54.9451 19.6575 54.7411 18.9315 54.6931 18.0915C54.6811 17.8515 54.6751 17.5815 54.6751 17.2815C54.6751 16.9695 54.6811 16.6995 54.6931 16.4715C54.7411 15.6195 54.9571 14.8935 55.3411 14.2935C55.7251 13.6935 56.2591 13.2315 56.9431 12.9075C57.6391 12.5835 58.4731 12.4215 59.4451 12.4215C60.4291 12.4215 61.2631 12.5835 61.9471 12.9075C62.6431 13.2315 63.1831 13.6935 63.5671 14.2935C63.9511 14.8935 64.1671 15.6195 64.2151 16.4715C64.2271 16.6995 64.2331 16.9695 64.2331 17.2815C64.2331 17.5815 64.2271 17.8515 64.2151 18.0915C64.1671 18.9315 63.9571 19.6575 63.5851 20.2695C63.2251 20.8695 62.6971 21.3315 62.0011 21.6555C61.3171 21.9795 60.4651 22.1415 59.4451 22.1415ZM59.4451 19.9455C59.9851 19.9455 60.3751 19.7835 60.6151 19.4595C60.8671 19.1355 61.0111 18.6495 61.0471 18.0015C61.0591 17.8215 61.0651 17.5815 61.0651 17.2815C61.0651 16.9815 61.0591 16.7415 61.0471 16.5615C61.0111 15.9255 60.8671 15.4455 60.6151 15.1215C60.3751 14.7855 59.9851 14.6175 59.4451 14.6175C58.9171 14.6175 58.5271 14.7855 58.2751 15.1215C58.0231 15.4455 57.8851 15.9255 57.8611 16.5615C57.8491 16.7415 57.8431 16.9815 57.8431 17.2815C57.8431 17.5815 57.8491 17.8215 57.8611 18.0015C57.8851 18.6495 58.0231 19.1355 58.2751 19.4595C58.5271 19.7835 58.9171 19.9455 59.4451 19.9455Z" fill="black"/>
<path d="M71.3674 22.1415C70.2274 22.1415 69.2494 21.9555 68.4334 21.5835C67.6294 21.2115 66.9994 20.6655 66.5434 19.9455C66.0994 19.2255 65.8534 18.3315 65.8054 17.2635C65.7934 16.7715 65.7874 16.2435 65.7874 15.6795C65.7874 15.1155 65.7934 14.5755 65.8054 14.0595C65.8534 13.0155 66.1054 12.1335 66.5614 11.4135C67.0174 10.6815 67.6534 10.1295 68.4694 9.75755C69.2854 9.37355 70.2514 9.18155 71.3674 9.18155C72.1594 9.18155 72.8914 9.28355 73.5634 9.48755C74.2354 9.67955 74.8234 9.96755 75.3274 10.3515C75.8314 10.7235 76.2214 11.1795 76.4974 11.7195C76.7854 12.2475 76.9354 12.8475 76.9474 13.5195C76.9594 13.6275 76.9234 13.7175 76.8394 13.7895C76.7674 13.8615 76.6774 13.8975 76.5694 13.8975H74.1394C73.9834 13.8975 73.8634 13.8675 73.7794 13.8075C73.6954 13.7355 73.6234 13.6095 73.5634 13.4295C73.3954 12.7935 73.1194 12.3615 72.7354 12.1335C72.3634 11.8935 71.9014 11.7735 71.3494 11.7735C70.6894 11.7735 70.1674 11.9595 69.7834 12.3315C69.3994 12.6915 69.1894 13.2975 69.1534 14.1495C69.1174 15.1335 69.1174 16.1415 69.1534 17.1735C69.1894 18.0255 69.3994 18.6375 69.7834 19.0095C70.1674 19.3695 70.6894 19.5495 71.3494 19.5495C71.9014 19.5495 72.3694 19.4295 72.7534 19.1895C73.1374 18.9495 73.4074 18.5175 73.5634 17.8935C73.6114 17.7135 73.6774 17.5935 73.7614 17.5335C73.8574 17.4615 73.9834 17.4255 74.1394 17.4255H76.5694C76.6774 17.4255 76.7674 17.4615 76.8394 17.5335C76.9234 17.6055 76.9594 17.6955 76.9474 17.8035C76.9354 18.4755 76.7854 19.0815 76.4974 19.6215C76.2214 20.1495 75.8314 20.6055 75.3274 20.9895C74.8234 21.3615 74.2354 21.6495 73.5634 21.8535C72.8914 22.0455 72.1594 22.1415 71.3674 22.1415ZM83.0701 22.1415C82.0621 22.1415 81.2101 21.9795 80.5141 21.6555C79.8301 21.3315 79.3021 20.8695 78.9301 20.2695C78.5701 19.6575 78.3661 18.9315 78.3181 18.0915C78.3061 17.8515 78.3001 17.5815 78.3001 17.2815C78.3001 16.9695 78.3061 16.6995 78.3181 16.4715C78.3661 15.6195 78.5821 14.8935 78.9661 14.2935C79.3501 13.6935 79.8841 13.2315 80.5681 12.9075C81.2641 12.5835 82.0981 12.4215 83.0701 12.4215C84.0541 12.4215 84.8881 12.5835 85.5721 12.9075C86.2681 13.2315 86.8081 13.6935 87.1921 14.2935C87.5761 14.8935 87.7921 15.6195 87.8401 16.4715C87.8521 16.6995 87.8581 16.9695 87.8581 17.2815C87.8581 17.5815 87.8521 17.8515 87.8401 18.0915C87.7921 18.9315 87.5821 19.6575 87.2101 20.2695C86.8501 20.8695 86.3221 21.3315 85.6261 21.6555C84.9421 21.9795 84.0901 22.1415 83.0701 22.1415ZM83.0701 19.9455C83.6101 19.9455 84.0001 19.7835 84.2401 19.4595C84.4921 19.1355 84.6361 18.6495 84.6721 18.0015C84.6841 17.8215 84.6901 17.5815 84.6901 17.2815C84.6901 16.9815 84.6841 16.7415 84.6721 16.5615C84.6361 15.9255 84.4921 15.4455 84.2401 15.1215C84.0001 14.7855 83.6101 14.6175 83.0701 14.6175C82.5421 14.6175 82.1521 14.7855 81.9001 15.1215C81.6481 15.4455 81.5101 15.9255 81.4861 16.5615C81.4741 16.7415 81.4681 16.9815 81.4681 17.2815C81.4681 17.5815 81.4741 17.8215 81.4861 18.0015C81.5101 18.6495 81.6481 19.1355 81.9001 19.4595C82.1521 19.7835 82.5421 19.9455 83.0701 19.9455ZM90.0784 21.9615C89.9464 21.9615 89.8384 21.9195 89.7544 21.8355C89.6704 21.7515 89.6284 21.6435 89.6284 21.5115V13.0515C89.6284 12.9315 89.6704 12.8295 89.7544 12.7455C89.8384 12.6495 89.9464 12.6015 90.0784 12.6015H92.1484C92.2804 12.6015 92.3884 12.6495 92.4724 12.7455C92.5564 12.8295 92.5984 12.9315 92.5984 13.0515V13.7715C92.9224 13.3995 93.3064 13.1115 93.7504 12.9075C94.2064 12.7035 94.7164 12.6015 95.2804 12.6015H96.0724C96.1924 12.6015 96.2944 12.6435 96.3784 12.7275C96.4744 12.8115 96.5224 12.9195 96.5224 13.0515V14.9055C96.5224 15.0255 96.4744 15.1335 96.3784 15.2295C96.2944 15.3135 96.1924 15.3555 96.0724 15.3555H94.3264C93.8344 15.3555 93.4504 15.4935 93.1744 15.7695C92.9104 16.0335 92.7784 16.4115 92.7784 16.9035V21.5115C92.7784 21.6435 92.7304 21.7515 92.6344 21.8355C92.5504 21.9195 92.4424 21.9615 92.3104 21.9615H90.0784ZM102.16 22.1415C101.152 22.1415 100.3 21.9795 99.6039 21.6555C98.9199 21.3315 98.3919 20.8695 98.0199 20.2695C97.6599 19.6575 97.4559 18.9315 97.4079 18.0915C97.3959 17.8515 97.3899 17.5815 97.3899 17.2815C97.3899 16.9695 97.3959 16.6995 97.4079 16.4715C97.4559 15.6195 97.6719 14.8935 98.0559 14.2935C98.4399 13.6935 98.9739 13.2315 99.6579 12.9075C100.354 12.5835 101.188 12.4215 102.16 12.4215C103.144 12.4215 103.978 12.5835 104.662 12.9075C105.358 13.2315 105.898 13.6935 106.282 14.2935C106.666 14.8935 106.882 15.6195 106.93 16.4715C106.942 16.6995 106.948 16.9695 106.948 17.2815C106.948 17.5815 106.942 17.8515 106.93 18.0915C106.882 18.9315 106.672 19.6575 106.3 20.2695C105.94 20.8695 105.412 21.3315 104.716 21.6555C104.032 21.9795 103.18 22.1415 102.16 22.1415ZM102.16 19.9455C102.7 19.9455 103.09 19.7835 103.33 19.4595C103.582 19.1355 103.726 18.6495 103.762 18.0015C103.774 17.8215 103.78 17.5815 103.78 17.2815C103.78 16.9815 103.774 16.7415 103.762 16.5615C103.726 15.9255 103.582 15.4455 103.33 15.1215C103.09 14.7855 102.7 14.6175 102.16 14.6175C101.632 14.6175 101.242 14.7855 100.99 15.1215C100.738 15.4455 100.6 15.9255 100.576 16.5615C100.564 16.7415 100.558 16.9815 100.558 17.2815C100.558 17.5815 100.564 17.8215 100.576 18.0015C100.6 18.6495 100.738 19.1355 100.99 19.4595C101.242 19.7835 101.632 19.9455 102.16 19.9455ZM109.168 21.9615C109.036 21.9615 108.928 21.9195 108.844 21.8355C108.76 21.7515 108.718 21.6435 108.718 21.5115V13.0515C108.718 12.9195 108.76 12.8115 108.844 12.7275C108.928 12.6435 109.036 12.6015 109.168 12.6015H111.238C111.37 12.6015 111.478 12.6435 111.562 12.7275C111.646 12.8115 111.688 12.9195 111.688 13.0515V13.7355C112 13.3635 112.408 13.0515 112.912 12.7995C113.416 12.5475 114.01 12.4215 114.694 12.4215C115.39 12.4215 116.002 12.5775 116.53 12.8895C117.07 13.2015 117.49 13.6635 117.79 14.2755C118.102 14.8755 118.258 15.6135 118.258 16.4895V21.5115C118.258 21.6435 118.21 21.7515 118.114 21.8355C118.03 21.9195 117.928 21.9615 117.808 21.9615H115.54C115.42 21.9615 115.312 21.9195 115.216 21.8355C115.132 21.7515 115.09 21.6435 115.09 21.5115V16.5975C115.09 16.0335 114.952 15.6015 114.676 15.3015C114.412 14.9895 114.016 14.8335 113.488 14.8335C112.996 14.8335 112.6 14.9895 112.3 15.3015C112.012 15.6015 111.868 16.0335 111.868 16.5975V21.5115C111.868 21.6435 111.82 21.7515 111.724 21.8355C111.64 21.9195 111.538 21.9615 111.418 21.9615H109.168ZM123.075 22.1415C122.427 22.1415 121.845 22.0215 121.329 21.7815C120.825 21.5295 120.423 21.1935 120.123 20.7735C119.823 20.3535 119.673 19.8795 119.673 19.3515C119.673 18.4995 120.021 17.8275 120.717 17.3355C121.413 16.8315 122.337 16.4895 123.489 16.3095L125.739 15.9675V15.7155C125.739 15.2835 125.649 14.9535 125.469 14.7255C125.289 14.4975 124.959 14.3835 124.479 14.3835C124.143 14.3835 123.867 14.4495 123.651 14.5815C123.447 14.7135 123.285 14.8935 123.165 15.1215C123.057 15.2775 122.907 15.3555 122.715 15.3555H120.699C120.567 15.3555 120.465 15.3195 120.393 15.2475C120.321 15.1635 120.291 15.0675 120.303 14.9595C120.303 14.7435 120.381 14.4975 120.537 14.2215C120.705 13.9335 120.957 13.6515 121.293 13.3755C121.629 13.0995 122.061 12.8715 122.589 12.6915C123.117 12.5115 123.753 12.4215 124.497 12.4215C125.277 12.4215 125.943 12.5115 126.495 12.6915C127.047 12.8715 127.491 13.1235 127.827 13.4475C128.175 13.7715 128.433 14.1555 128.601 14.5995C128.769 15.0315 128.853 15.5115 128.853 16.0395V21.5115C128.853 21.6435 128.805 21.7515 128.709 21.8355C128.625 21.9195 128.523 21.9615 128.403 21.9615H126.315C126.183 21.9615 126.075 21.9195 125.991 21.8355C125.907 21.7515 125.865 21.6435 125.865 21.5115V20.8815C125.709 21.1095 125.499 21.3195 125.235 21.5115C124.971 21.7035 124.659 21.8535 124.299 21.9615C123.951 22.0815 123.543 22.1415 123.075 22.1415ZM123.921 20.0895C124.269 20.0895 124.581 20.0175 124.857 19.8735C125.145 19.7175 125.367 19.4835 125.523 19.1715C125.691 18.8475 125.775 18.4455 125.775 17.9655V17.7135L124.245 17.9835C123.681 18.0795 123.267 18.2295 123.003 18.4335C122.751 18.6255 122.625 18.8535 122.625 19.1175C122.625 19.3215 122.685 19.4955 122.805 19.6395C122.925 19.7835 123.081 19.8975 123.273 19.9815C123.465 20.0535 123.681 20.0895 123.921 20.0895Z" fill="#EC5863"/>
</g>
<defs>
<clipPath id="clip0_70_3">
<rect width="130" height="32" fill="white"/>
</clipPath>
</defs>
</svg>
