<svg width="32" height="32" viewBox="0 0 32 32" fill="none" xmlns="http://www.w3.org/2000/svg">
<g clip-path="url(#clip0_75_4)">
<path d="M10.0908 0.988689C11.5155 0.489174 13.0813 1.16285 13.5874 2.49273C13.9748 3.51091 13.6281 4.61769 12.8063 5.30529L13.2504 6.51626L13.9569 7.33156C14.1182 7.51815 14.3628 7.60735 14.608 7.57723C15.2691 7.49588 15.926 7.49283 16.5693 7.56044C16.7873 7.58361 17.0042 7.5116 17.1607 7.35952L17.6705 6.8661L18.0464 5.77185C17.7266 5.33293 17.6183 4.75165 17.8079 4.19933C18.1297 3.26306 19.1807 2.77916 20.1154 3.16256C20.9206 3.49245 21.3587 4.38808 21.123 5.22153C20.9732 5.75239 20.5941 6.15 20.1276 6.34678L19.7115 7.55944L19.8064 8.22758C19.839 8.45726 19.9754 8.65791 20.1747 8.77818C20.8446 9.18474 21.4599 9.6817 22.0001 10.2562C22.1816 10.4496 22.4524 10.5325 22.7127 10.4801L24.0525 10.2111L25.5661 9.37167C25.5739 8.6274 25.9717 7.90786 26.6719 7.51947C27.7306 6.93263 29.0714 7.32701 29.6355 8.40237C30.1448 9.3725 29.8251 10.592 28.9027 11.1892C28.1824 11.6547 27.3035 11.6377 26.6251 11.2402L25.1025 12.084L24.2523 12.9871C24.0241 13.2294 23.9428 13.572 24.0299 13.8928C24.0304 13.8947 24.0307 13.896 24.0312 13.8979C24.1802 14.4507 24.2706 15.0063 24.308 15.557C24.3297 15.8851 24.5154 16.1803 24.8062 16.3371L25.9159 16.9353L28.1154 17.35C28.5031 17.0124 29.0372 16.8491 29.583 16.9515C30.5615 17.1363 31.1915 18.1048 30.9408 19.0797C30.7251 19.9145 29.9025 20.4703 29.0423 20.3609C28.4557 20.2863 27.9821 19.9338 27.7278 19.4598L25.5141 19.0427L24.1487 19.2089C23.897 19.24 23.6772 19.3975 23.5746 19.628C23.166 20.5379 22.6023 21.3748 21.9063 22.0973C21.7334 22.2768 21.6685 22.5338 21.7313 22.7744L22.0706 24.0843L22.9084 25.3942C23.8299 25.2563 24.7888 25.6536 25.3208 26.4856C26.0359 27.6034 25.7115 29.0834 24.5985 29.8046C23.4861 30.5257 21.9723 30.2119 21.2432 29.1081C20.7327 28.3353 20.7271 27.382 21.1409 26.6257L20.2515 25.2354L19.158 24.3384C18.9961 24.2048 18.7754 24.1695 18.5778 24.2397C18.3585 24.3178 18.1349 24.3876 17.9062 24.4485C16.6635 24.7796 15.4106 24.8223 14.2189 24.6198C14.0442 24.5905 13.8655 24.6402 13.7319 24.7557L13.1451 25.2642L12.7086 26.336C13.0039 26.7923 13.0793 27.3783 12.8594 27.919C12.4856 28.8366 11.4092 29.2616 10.4976 28.8274C9.71253 28.4535 9.32478 27.535 9.60655 26.7157C9.78598 26.1939 10.1858 25.8178 10.6628 25.6473L11.1463 24.4594L11.0565 23.4161C10.1846 22.8717 9.40878 22.1731 8.77435 21.3474L7.2832 21.4942L5.88752 22.1823C5.89661 23.1158 5.41482 24.0039 4.56918 24.4338C3.37426 25.0407 1.90648 24.5034 1.29117 23.2331C0.67604 21.9634 1.14521 20.4421 2.34012 19.8352C3.23433 19.3809 4.28073 19.5673 5.00879 20.2224L6.32504 19.573L7.23849 18.5962C7.29819 18.5323 7.32028 18.4424 7.29764 18.3584L7.2973 18.3571C6.87513 16.7902 6.91822 15.2063 7.34175 13.7506C7.36449 13.6707 7.3474 13.5846 7.29352 13.521L6.50546 12.5826L4.80758 11.6942C4.33992 11.8994 3.7855 11.8988 3.29793 11.6434C2.41711 11.182 2.09972 10.0748 2.62476 9.21569C3.0857 8.46241 4.06747 8.17642 4.86469 8.5626C5.38073 8.81243 5.71362 9.27968 5.81203 9.79656L7.5099 10.6849L8.71844 10.7983C8.80234 10.8064 8.88406 10.7711 8.93737 10.7061C9.48547 10.0312 10.138 9.43542 10.8792 8.9467C11.0826 8.81192 11.209 8.58863 11.2122 8.34534L11.2247 7.25177L10.751 5.96133C9.72409 5.88759 8.79512 5.26768 8.42697 4.30058C7.9209 2.97071 8.66593 1.48757 10.0908 0.988689Z" fill="#EC5863"/>
<path d="M21.8598 14.4765C20.9429 11.0736 17.4259 9.05422 14.0042 9.96602C10.5825 10.8778 8.55194 14.3755 9.46877 17.7784C10.3856 21.1813 13.9027 23.2007 17.3243 22.2889C20.746 21.3771 22.7766 17.8794 21.8598 14.4765Z" fill="#F58A97"/>
<path d="M16.8184 20.4109C13.7176 21.2372 10.5387 19.6565 9.28725 16.8204C9.32267 17.1391 9.38276 17.4592 9.46878 17.7784C10.3856 21.1814 13.9026 23.2007 17.3243 22.2889C20.7461 21.3771 22.7766 17.8795 21.8598 14.4765C21.7737 14.1573 21.6649 13.8502 21.5353 13.5566C21.8773 16.6349 19.919 19.5847 16.8184 20.4109Z" fill="#F07281"/>
<path d="M7.19403 29.496C6.93294 28.5269 5.93138 27.9518 4.95698 28.2115C3.98258 28.4711 3.40433 29.4672 3.66542 30.4362C3.92651 31.4053 4.92807 31.9804 5.90247 31.7207C6.87687 31.4611 7.45512 30.465 7.19403 29.496Z" fill="#EB5569"/>
<path d="M29.9806 23.9379C29.8081 23.2978 29.1466 22.918 28.503 23.0895C27.8594 23.261 27.4774 23.9189 27.6499 24.559C27.8223 25.199 28.4839 25.5789 29.1275 25.4074C29.7711 25.2359 30.153 24.5779 29.9806 23.9379Z" fill="#EB5569"/>
<path d="M26.7129 2.00213C26.4589 1.05936 25.4845 0.499875 24.5365 0.75249C23.5885 1.0051 23.0259 1.97416 23.2799 2.91693C23.5339 3.8597 24.5083 4.41918 25.4563 4.16656C26.4043 3.91395 26.9669 2.9449 26.7129 2.00213Z" fill="#EB5569"/>
<path d="M16.0655 18.0477C15.8287 17.1687 14.9202 16.6471 14.0364 16.8826C13.1526 17.1181 12.6281 18.0216 12.8649 18.9005C13.1018 19.7795 14.0102 20.3011 14.894 20.0656C15.7778 19.8301 16.3023 18.9266 16.0655 18.0477Z" fill="#EB5569"/>
<path d="M20.1808 15.5818C20.0196 14.9835 19.4013 14.6285 18.7997 14.7888C18.1981 14.9491 17.8411 15.564 18.0023 16.1623C18.1635 16.7606 18.7819 17.1156 19.3834 16.9553C19.985 16.795 20.342 16.18 20.1808 15.5818Z" fill="#EB5569"/>
<path d="M15.8278 13.0961C15.6924 12.5937 15.1732 12.2956 14.6681 12.4302C14.1629 12.5648 13.8632 13.0812 13.9985 13.5835C14.1339 14.0859 14.6531 14.384 15.1582 14.2494C15.6634 14.1148 15.9632 13.5984 15.8278 13.0961Z" fill="#EB5569"/>
</g>
<defs>
<clipPath id="clip0_75_4">
<rect width="32" height="32" fill="white"/>
</clipPath>
</defs>
</svg>
