<svg width="72" height="72" viewBox="0 0 72 72" fill="none" xmlns="http://www.w3.org/2000/svg">
<path d="M68.2857 25.2H46.8571V72H39.7143V50.4H32.5714V72H25.4286V25.2H4V18H68.2857V25.2ZM36.1429 0C38.0373 0 39.8541 0.758569 41.1936 2.10883C42.5332 3.45909 43.2857 5.29044 43.2857 7.2C43.2857 9.10956 42.5332 10.9409 41.1936 12.2912C39.8541 13.6414 38.0373 14.4 36.1429 14.4C34.2485 14.4 32.4316 13.6414 31.0921 12.2912C29.7526 10.9409 29 9.10956 29 7.2C29 3.204 32.1786 0 36.1429 0Z" fill="#EC5863"/>
</svg>
