<svg width="72" height="72" viewBox="0 0 72 72" fill="none" xmlns="http://www.w3.org/2000/svg">
<path d="M36.3578 0C30.5202 0 27.026 0.886154 24.8049 1.99108C23.693 2.54492 22.9035 3.12646 22.3725 3.72185C21.8388 4.31723 21.5025 5.19231 21.5025 5.19231C21.4153 5.41471 21.3574 5.64741 21.3301 5.88462L19.8512 24.8372C19.8318 24.9535 19.8707 25.1418 19.8512 25.2692L19.6789 27.1745C19.6627 27.3467 19.6627 27.5201 19.6789 27.6923C19.6789 36.8308 27.1844 44.3077 36.3578 44.3077C45.5312 44.3077 53.0367 36.8308 53.0367 27.6923V27.2603C53.0371 27.2317 53.0371 27.2031 53.0367 27.1745L51.3855 5.88462C51.3582 5.64741 51.3003 5.41471 51.2131 5.19231C51.2131 5.19231 50.8768 4.31723 50.3431 3.72185C49.8121 3.12369 49.0226 2.54215 47.9107 1.99108C45.6896 0.883385 42.1954 0 36.3578 0ZM36.3578 44.3077C18.011 44.3077 3 52.9089 3 60.6628V72H69.7156V60.6628C69.7156 53.2966 56.1445 45.1828 39.0514 44.3935C38.1548 44.3346 37.2564 44.306 36.3578 44.3077ZM36.3578 5.53846C41.6395 5.53846 44.2775 6.36923 45.3922 6.92308C45.7647 7.10862 45.8092 7.18062 45.9148 7.26923L47.0434 21.4615C44.486 21.6166 41.0001 22.1538 36.3578 22.1538C31.7155 22.1538 28.2324 21.6166 25.6722 21.4615L26.8008 7.26923C26.9036 7.18062 26.9509 7.10862 27.3234 6.92308C28.4381 6.36923 31.0761 5.53846 36.3578 5.53846ZM34.0978 8.30769V11.5975H30.7982V16.0975H34.1006V19.3846H38.615V16.0948H41.9174V11.5975H38.615V8.30769H34.1006H34.0978ZM28.0183 50.5385L35.143 66.4615H8.55963V60.6628C8.55963 58.5997 15.6482 52.5572 28.0183 50.5385ZM44.6973 50.5385C57.0674 52.56 64.156 58.5997 64.156 60.6628V66.4615H37.5726L44.6973 50.5385Z" fill="#EC5863"/>
</svg>
