<svg width="80" height="72" viewBox="0 0 80 72" fill="none" xmlns="http://www.w3.org/2000/svg">
<path d="M22 0C16.1652 0 10.5695 2.50203 6.44365 6.95567C2.31785 11.4093 0 17.4497 0 23.7481C0 25.907 0.36 28.066 0.88 30.2249H17.2L22.28 15.6738C23.48 12.2195 28.2 11.8741 29.72 15.6738L38 38.8606L40.36 32.7292C40.88 31.3043 42.28 30.2249 44 30.2249H79.12C79.64 28.066 80 25.907 80 23.7481C80 17.4497 77.6822 11.4093 73.5564 6.95567C69.4306 2.50203 63.8348 0 58 0C50.56 0 44 4.01559 40 10.1037C36 4.01559 29.44 0 22 0ZM4 36.7016C2.93913 36.7016 1.92172 37.1566 1.17157 37.9663C0.421427 38.7761 0 39.8743 0 41.0195C0 42.1647 0.421427 43.2629 1.17157 44.0727C1.92172 44.8824 2.93913 45.3373 4 45.3373H13.76L36 69.0855C40 72.9715 40 72.9715 44 69.0855L66.24 45.3373H76C77.0609 45.3373 78.0783 44.8824 78.8284 44.0727C79.5786 43.2629 80 42.1647 80 41.0195C80 39.8743 79.5786 38.7761 78.8284 37.9663C78.0783 37.1566 77.0609 36.7016 76 36.7016H45.6L41.88 46.6327C40.28 50.9937 35.68 50.3892 34.2 46.7622L26 23.7481L22.16 33.8087C21.56 35.4495 20.2 36.7016 18.4 36.7016H4Z" fill="#EC5863"/>
</svg>
